<svg width="22" height="22" viewBox="0 0 22 22" fill="none" xmlns="http://www.w3.org/2000/svg">
<path d="M3.20825 20.1673H18.7916C19.1563 20.1673 19.506 20.0225 19.7639 19.7646C20.0217 19.5067 20.1666 19.157 20.1666 18.7923V3.20898C20.1666 2.84431 20.0217 2.49458 19.7639 2.23671C19.506 1.97885 19.1563 1.83398 18.7916 1.83398H3.20825C2.84358 1.83398 2.49384 1.97885 2.23598 2.23671C1.97812 2.49458 1.83325 2.84431 1.83325 3.20898V18.7923C1.83325 19.157 1.97812 19.5067 2.23598 19.7646C2.49384 20.0225 2.84358 20.1673 3.20825 20.1673ZM19.2499 18.7923C19.2499 18.9139 19.2016 19.0305 19.1157 19.1164C19.0297 19.2024 18.9131 19.2507 18.7916 19.2507H3.20825C3.08669 19.2507 2.97012 19.2024 2.88416 19.1164C2.79821 19.0305 2.74992 18.9139 2.74992 18.7923V5.95898H19.2499V18.7923ZM2.74992 3.20898C2.74992 3.08743 2.79821 2.97085 2.88416 2.88489C2.97012 2.79894 3.08669 2.75065 3.20825 2.75065H18.7916C18.9131 2.75065 19.0297 2.79894 19.1157 2.88489C19.2016 2.97085 19.2499 3.08743 19.2499 3.20898V5.04232H2.74992V3.20898Z" fill="#212121"/>
<path d="M5.04159 11.916H9.16659C9.28814 11.916 9.40472 11.8677 9.49068 11.7818C9.57663 11.6958 9.62492 11.5792 9.62492 11.4577V8.24935C9.62492 8.12779 9.57663 8.01121 9.49068 7.92526C9.40472 7.8393 9.28814 7.79102 9.16659 7.79102H5.04159C4.92003 7.79102 4.80345 7.8393 4.71749 7.92526C4.63154 8.01121 4.58325 8.12779 4.58325 8.24935V11.4577C4.58325 11.5792 4.63154 11.6958 4.71749 11.7818C4.80345 11.8677 4.92003 11.916 5.04159 11.916ZM5.49992 8.70768H8.70825V10.9993H5.49992V8.70768Z" fill="#212121"/>
<path d="M11.4583 8.70768H16.9583C17.0799 8.70768 17.1965 8.65939 17.2824 8.57344C17.3684 8.48749 17.4167 8.37091 17.4167 8.24935C17.4167 8.12779 17.3684 8.01121 17.2824 7.92526C17.1965 7.8393 17.0799 7.79102 16.9583 7.79102H11.4583C11.3368 7.79102 11.2202 7.8393 11.1342 7.92526C11.0483 8.01121 11 8.12779 11 8.24935C11 8.37091 11.0483 8.48749 11.1342 8.57344C11.2202 8.65939 11.3368 8.70768 11.4583 8.70768Z" fill="#212121"/>
<path d="M11.4583 11.9167H16.9583C17.0799 11.9167 17.1965 11.8684 17.2824 11.7824C17.3684 11.6965 17.4167 11.5799 17.4167 11.4583C17.4167 11.3368 17.3684 11.2202 17.2824 11.1342C17.1965 11.0483 17.0799 11 16.9583 11H11.4583C11.3368 11 11.2202 11.0483 11.1342 11.1342C11.0483 11.2202 11 11.3368 11 11.4583C11 11.5799 11.0483 11.6965 11.1342 11.7824C11.2202 11.8684 11.3368 11.9167 11.4583 11.9167Z" fill="#212121"/>
<path d="M5.04171 14.6667H16.9584C17.0799 14.6667 17.1965 14.6184 17.2825 14.5324C17.3684 14.4465 17.4167 14.3299 17.4167 14.2083C17.4167 14.0868 17.3684 13.9702 17.2825 13.8842C17.1965 13.7983 17.0799 13.75 16.9584 13.75H5.04171C4.92015 13.75 4.80357 13.7983 4.71762 13.8842C4.63166 13.9702 4.58337 14.0868 4.58337 14.2083C4.58337 14.3299 4.63166 14.4465 4.71762 14.5324C4.80357 14.6184 4.92015 14.6667 5.04171 14.6667Z" fill="#212121"/>
<path d="M5.04171 17.4167H11C11.1216 17.4167 11.2382 17.3684 11.3241 17.2824C11.4101 17.1965 11.4584 17.0799 11.4584 16.9583C11.4584 16.8368 11.4101 16.7202 11.3241 16.6342C11.2382 16.5483 11.1216 16.5 11 16.5H5.04171C4.92015 16.5 4.80357 16.5483 4.71762 16.6342C4.63166 16.7202 4.58337 16.8368 4.58337 16.9583C4.58337 17.0799 4.63166 17.1965 4.71762 17.2824C4.80357 17.3684 4.92015 17.4167 5.04171 17.4167Z" fill="#212121"/>
</svg>
