<svg width="30" height="30" viewBox="0 0 30 30" fill="none" xmlns="http://www.w3.org/2000/svg">
<path d="M26.4816 3.51898V1.75977H24.7237V3.51898H5.27625V1.75977H3.51844V3.51898H0V28.2413H30V3.51898H26.4816ZM28.2422 26.4835H1.75781V5.2768H3.51844V7.03602H5.27625V5.2768H24.7237V7.03602H26.4816V5.2768H28.2422V26.4835Z" fill="#212121"/>
<path d="M3.51758 8.79688H26.4821V10.5547H3.51758V8.79688Z" fill="#212121"/>
<path d="M3.51758 12.3145H5.2768V14.0723H3.51758V12.3145Z" fill="#212121"/>
<path d="M3.51758 15.8652H5.2768V17.623H3.51758V15.8652Z" fill="#212121"/>
<path d="M3.51758 19.4141H5.2768V21.1719H3.51758V19.4141Z" fill="#212121"/>
<path d="M3.51758 22.9648H5.2768V24.7227H3.51758V22.9648Z" fill="#212121"/>
<path d="M7.05176 12.3145H8.81098V14.0723H7.05176V12.3145Z" fill="#212121"/>
<path d="M7.05176 15.8652H8.81098V17.623H7.05176V15.8652Z" fill="#212121"/>
<path d="M7.05176 19.4141H8.81098V21.1719H7.05176V19.4141Z" fill="#212121"/>
<path d="M7.05176 22.9648H8.81098V24.7227H7.05176V22.9648Z" fill="#212121"/>
<path d="M10.5864 12.3145H12.3456V14.0723H10.5864V12.3145Z" fill="#212121"/>
<path d="M10.5859 15.8652H12.3452V17.623H10.5859V15.8652Z" fill="#212121"/>
<path d="M10.5859 19.4141H12.3452V21.1719H10.5859V19.4141Z" fill="#212121"/>
<path d="M10.5859 22.9648H12.3452V24.7227H10.5859V22.9648Z" fill="#212121"/>
<path d="M14.1206 12.3145H15.8798V14.0723H14.1206V12.3145Z" fill="#212121"/>
<path d="M14.1201 15.8652H15.8793V17.623H14.1201V15.8652Z" fill="#212121"/>
<path d="M14.1201 19.4141H15.8793V21.1719H14.1201V19.4141Z" fill="#212121"/>
<path d="M14.1201 22.9648H15.8793V24.7227H14.1201V22.9648Z" fill="#212121"/>
<path d="M17.6548 12.3145H19.4139V14.0723H17.6548V12.3145Z" fill="#212121"/>
<path d="M17.6548 15.8652H19.4139V17.623H17.6548V15.8652Z" fill="#212121"/>
<path d="M17.6548 19.4141H19.4139V21.1719H17.6548V19.4141Z" fill="#212121"/>
<path d="M17.6548 22.9648H19.4139V24.7227H17.6548V22.9648Z" fill="#212121"/>
<path d="M21.189 12.3145H22.9481V14.0723H21.189V12.3145Z" fill="#212121"/>
<path d="M21.189 15.8652H22.9481V17.623H21.189V15.8652Z" fill="#212121"/>
<path d="M21.189 19.4141H22.9481V21.1719H21.189V19.4141Z" fill="#212121"/>
<path d="M21.189 22.9648H22.9481V24.7227H21.189V22.9648Z" fill="#212121"/>
<path d="M24.7231 12.3145H26.4823V14.0723H24.7231V12.3145Z" fill="#212121"/>
<path d="M24.7231 15.8652H26.4823V17.623H24.7231V15.8652Z" fill="#212121"/>
<path d="M24.7231 19.4141H26.4823V21.1719H24.7231V19.4141Z" fill="#212121"/>
<path d="M24.7231 22.9648H26.4823V24.7227H24.7231V22.9648Z" fill="#212121"/>
</svg>
