<svg width="336" height="353" viewBox="0 0 336 353" fill="none" xmlns="http://www.w3.org/2000/svg">
<rect x="15" y="4" width="51" height="51" fill="#212121" stroke="#212121" stroke-width="2"/>
<rect x="12" y="1" width="51" height="51" fill="white" stroke="#212121" stroke-width="2"/>
<path d="M50.6 17.6004H44.5333V15.7337C44.5317 14.4456 43.4881 13.402 42.2 13.4004H33.8C32.5119 13.402 31.4683 14.4456 31.4667 15.7337V17.6004H25.4C24.6269 17.6004 24 18.2272 24 19.0004V29.3883C24.003 29.9803 24.376 30.5069 24.9333 30.7058V37.2004C24.9333 37.9735 25.5602 38.6004 26.3333 38.6004H49.6667C50.4398 38.6004 51.0667 37.9735 51.0667 37.2004V30.7062C51.624 30.5071 51.9973 29.9803 52 29.3883V19.0004C52 18.2272 51.3731 17.6004 50.6 17.6004ZM32.4 15.7337C32.4 14.9606 33.0269 14.3337 33.8 14.3337H42.2C42.9731 14.3337 43.6 14.9606 43.6 15.7337V17.6004H42.6667V15.7337C42.6667 15.476 42.4577 15.2671 42.2 15.2671H33.8C33.5423 15.2671 33.3333 15.476 33.3333 15.7337V17.6004H32.4V15.7337ZM41.7333 17.6004H34.2667V16.2004H41.7333V17.6004ZM50.1333 37.2004C50.1333 37.4581 49.9244 37.6671 49.6667 37.6671H26.3333C26.0756 37.6671 25.8667 37.4581 25.8667 37.2004V30.8662L36.1333 32.2822V33.4671C36.1333 34.2402 36.7602 34.8671 37.5333 34.8671H38.4667C39.2398 34.8671 39.8667 34.2402 39.8667 33.4671V32.2822L50.1333 30.8662V37.2004ZM38.9333 33.4671C38.9333 33.7248 38.7244 33.9337 38.4667 33.9337H37.5333C37.2756 33.9337 37.0667 33.7248 37.0667 33.4671V30.6671C37.0667 30.4093 37.2756 30.2004 37.5333 30.2004H38.4667C38.7244 30.2004 38.9333 30.4093 38.9333 30.6671V33.4671ZM51.0667 29.3883C51.0669 29.6209 50.8958 29.8183 50.6654 29.8508L50.536 29.8686L39.8667 31.3399V30.6671C39.8667 29.8939 39.2398 29.2671 38.4667 29.2671H37.5333C36.7602 29.2671 36.1333 29.8939 36.1333 30.6671V31.3399L25.3351 29.8508C25.1047 29.8185 24.9331 29.6212 24.9333 29.3883V19.0004C24.9333 18.7427 25.1423 18.5337 25.4 18.5337H50.6C50.8577 18.5337 51.0667 18.7427 51.0667 19.0004V29.3883Z" fill="#212121"/>
<rect x="80" y="78" width="51" height="51" fill="#212121" stroke="#212121" stroke-width="2"/>
<rect x="77" y="75" width="51" height="51" fill="white" stroke="#212121" stroke-width="2"/>
<g clip-path="url(#clip0_401_2)">
<path d="M113.581 105.891C115.42 104.699 116.305 102.474 115.789 100.344C115.272 98.2136 113.465 96.6424 111.284 96.4257V96.2027C111.973 95.4325 111.973 94.2675 111.284 93.4973V92.7833C111.284 87.9325 107.351 84 102.5 84C97.6495 84 93.717 87.9325 93.717 92.7833V93.4973C93.0282 94.2675 93.0282 95.4325 93.717 96.2027V96.4257C91.5358 96.6424 89.7292 98.2136 89.2123 100.344C88.6953 102.474 89.5806 104.699 91.42 105.891C89.9237 107.164 89.0632 109.031 89.067 110.996V114.483C89.067 114.769 89.2983 115 89.5836 115H115.417C115.703 115 115.934 114.769 115.934 114.483V110.996C115.937 109.031 115.077 107.164 113.581 105.891ZM114.9 101.567C114.897 103.113 114.028 104.528 112.65 105.231C112.112 104.909 111.531 104.664 110.925 104.503L107.086 103.491C106.818 103.255 106.474 103.125 106.117 103.124V101.621C107.874 100.605 109.123 98.8981 109.562 96.9167H109.734C109.908 96.9144 110.082 96.8899 110.25 96.8433V96.9167C110.25 97.202 110.482 97.4333 110.767 97.4333C113.049 97.4359 114.898 99.2851 114.9 101.567ZM103.792 104.837C103.567 104.97 103.379 105.157 103.246 105.383C102.785 105.117 102.216 105.117 101.755 105.383C101.488 104.922 100.996 104.637 100.463 104.637C100.464 104.191 100.264 103.768 99.917 103.487V102.115C101.578 102.762 103.422 102.762 105.084 102.115V103.487C104.737 103.768 104.537 104.191 104.538 104.637C104.276 104.639 104.019 104.708 103.792 104.837ZM103.017 106.733C103.017 107.019 102.786 107.25 102.5 107.25C102.215 107.25 101.984 107.019 101.984 106.733C101.984 106.448 102.215 106.217 102.5 106.217C102.786 106.217 103.017 106.448 103.017 106.733ZM96.3003 93.3V92.3116C99.6369 92.4382 102.893 91.2681 105.386 89.0463C105.84 90.1122 106.87 91.9314 108.7 92.2258V95.3667C108.7 98.7908 105.924 101.567 102.5 101.567C99.0764 101.567 96.3003 98.7908 96.3003 95.3667V93.3ZM110.767 94.85C110.767 95.4207 110.305 95.8833 109.734 95.8833V93.8167C110.305 93.8167 110.767 94.2793 110.767 94.85ZM98.92 104.15C99.1793 104.15 99.3983 104.342 99.4321 104.599C99.4661 104.856 99.3042 105.099 99.0537 105.166C98.8031 105.233 98.5418 105.104 98.4426 104.864C98.3435 104.625 98.4371 104.349 98.6616 104.219C98.7401 104.174 98.8291 104.15 98.92 104.15ZM99.9863 105.921C100.129 105.674 100.445 105.589 100.692 105.732C100.939 105.875 101.024 106.191 100.881 106.438C100.739 106.685 100.423 106.77 100.175 106.627C99.9283 106.484 99.8435 106.168 99.9863 105.921ZM104.309 105.732C104.556 105.589 104.872 105.674 105.014 105.921C105.157 106.168 105.073 106.484 104.826 106.627C104.578 106.77 104.262 106.685 104.12 106.438C103.977 106.191 104.062 105.875 104.309 105.732ZM105.822 105.112C105.621 104.994 105.524 104.757 105.585 104.532C105.645 104.308 105.848 104.151 106.081 104.15C106.172 104.15 106.261 104.174 106.339 104.219C106.5 104.311 106.6 104.482 106.601 104.667C106.601 104.853 106.502 105.024 106.341 105.116C106.181 105.209 105.982 105.208 105.823 105.114L105.822 105.112ZM102.5 85.0333C106.779 85.0381 110.245 88.5052 110.25 92.7833V92.8567C110.082 92.8101 109.908 92.7856 109.734 92.7833V91.75C109.734 91.4647 109.503 91.2333 109.217 91.2333C107.057 91.2333 106.106 88.0233 106.097 87.9908C106.046 87.815 105.907 87.679 105.73 87.6333C105.553 87.5874 105.364 87.6389 105.235 87.768C102.763 90.2353 99.3387 91.5025 95.856 91.2384C95.7079 91.2174 95.5578 91.2618 95.4451 91.36C95.332 91.4581 95.2672 91.6004 95.267 91.75V92.7833C95.0924 92.7856 94.9188 92.8101 94.7503 92.8567V92.7833C94.7553 88.5052 98.2221 85.0381 102.5 85.0333ZM94.2336 94.85C94.2336 94.2793 94.6963 93.8167 95.267 93.8167V95.8833C94.6963 95.8833 94.2336 95.4207 94.2336 94.85ZM90.1003 101.567C90.1031 99.2851 91.952 97.4359 94.2336 97.4333C94.5192 97.4333 94.7503 97.202 94.7503 96.9167V96.8433C94.9188 96.8899 95.0924 96.9144 95.267 96.9167H95.4385C95.8777 98.8981 97.1273 100.605 98.8836 101.621V103.124C98.5272 103.125 98.1828 103.255 97.9149 103.491L94.0787 104.503C93.4722 104.664 92.8912 104.909 92.3531 105.231C90.9742 104.529 90.1046 103.114 90.1003 101.567ZM114.9 113.967H111.756C111.783 113.796 111.798 113.623 111.8 113.45C111.799 112.268 111.22 111.161 110.25 110.485V109.317H109.217V110.769C109.217 110.953 109.315 111.124 109.475 111.216C110.273 111.677 110.766 112.528 110.767 113.45C110.765 113.624 110.746 113.797 110.708 113.967H94.2927C94.2551 113.797 94.2354 113.624 94.2336 113.45C94.2351 112.528 94.7273 111.677 95.5253 111.216C95.6855 111.124 95.7839 110.953 95.7836 110.769V109.317H94.7503V110.485C93.7808 111.161 93.2021 112.268 93.2003 113.45C93.2028 113.623 93.2174 113.796 93.2449 113.967H90.1003V110.996C90.1016 108.415 91.8413 106.159 94.3371 105.502L97.376 104.701C97.3785 104.961 97.4474 105.216 97.5761 105.442C97.848 105.91 98.3455 106.203 98.8874 106.212C98.9008 107.056 99.5898 107.732 100.434 107.73C100.696 107.729 100.953 107.662 101.183 107.535C101.461 107.999 101.962 108.283 102.503 108.283C103.044 108.283 103.545 107.999 103.823 107.535C104.053 107.662 104.31 107.729 104.572 107.73C105.414 107.729 106.1 107.054 106.113 106.212C106.654 106.202 107.151 105.91 107.422 105.442C107.551 105.216 107.62 104.961 107.622 104.701L110.664 105.502C113.16 106.159 114.899 108.415 114.9 110.996V113.967Z" fill="#212121"/>
</g>
<rect x="189" y="225" width="51" height="51" fill="#212121" stroke="#212121" stroke-width="2"/>
<rect x="186" y="222" width="51" height="51" fill="white" stroke="#212121" stroke-width="2"/>
<g clip-path="url(#clip1_401_2)">
<path d="M222.581 252.891C224.42 251.699 225.305 249.474 224.789 247.344C224.272 245.214 222.465 243.642 220.284 243.426V243.203C220.973 242.433 220.973 241.267 220.284 240.497V239.783C220.284 234.933 216.351 231 211.5 231C206.649 231 202.717 234.933 202.717 239.783V240.497C202.028 241.267 202.028 242.433 202.717 243.203V243.426C200.536 243.642 198.729 245.214 198.212 247.344C197.695 249.474 198.581 251.699 200.42 252.891C198.924 254.164 198.063 256.031 198.067 257.996V261.483C198.067 261.769 198.298 262 198.584 262H224.417C224.703 262 224.934 261.769 224.934 261.483V257.996C224.937 256.031 224.077 254.164 222.581 252.891ZM223.9 248.567C223.897 250.113 223.028 251.528 221.65 252.231C221.112 251.909 220.531 251.664 219.925 251.503L216.086 250.491C215.818 250.255 215.474 250.125 215.117 250.124V248.621C216.874 247.605 218.123 245.898 218.562 243.917H218.734C218.908 243.914 219.082 243.89 219.25 243.843V243.917C219.25 244.202 219.482 244.433 219.767 244.433C222.049 244.436 223.898 246.285 223.9 248.567ZM212.792 251.837C212.567 251.97 212.379 252.157 212.246 252.383C211.785 252.117 211.216 252.117 210.755 252.383C210.488 251.922 209.996 251.637 209.463 251.637C209.464 251.191 209.264 250.768 208.917 250.487V249.115C210.578 249.762 212.422 249.762 214.084 249.115V250.487C213.737 250.768 213.537 251.191 213.538 251.637C213.276 251.639 213.019 251.708 212.792 251.837ZM212.017 253.733C212.017 254.019 211.786 254.25 211.5 254.25C211.215 254.25 210.984 254.019 210.984 253.733C210.984 253.448 211.215 253.217 211.5 253.217C211.786 253.217 212.017 253.448 212.017 253.733ZM205.3 240.3V239.312C208.637 239.438 211.893 238.268 214.386 236.046C214.84 237.112 215.87 238.931 217.7 239.226V242.367C217.7 245.791 214.924 248.567 211.5 248.567C208.076 248.567 205.3 245.791 205.3 242.367V240.3ZM219.767 241.85C219.767 242.421 219.305 242.883 218.734 242.883V240.817C219.305 240.817 219.767 241.279 219.767 241.85ZM207.92 251.15C208.179 251.15 208.398 251.342 208.432 251.599C208.466 251.856 208.304 252.099 208.054 252.166C207.803 252.233 207.542 252.104 207.443 251.864C207.343 251.625 207.437 251.349 207.662 251.219C207.74 251.174 207.829 251.15 207.92 251.15ZM208.986 252.921C209.129 252.674 209.445 252.589 209.692 252.732C209.939 252.875 210.024 253.191 209.881 253.438C209.739 253.685 209.423 253.77 209.175 253.627C208.928 253.484 208.844 253.168 208.986 252.921ZM213.309 252.732C213.556 252.589 213.872 252.674 214.014 252.921C214.157 253.168 214.073 253.484 213.826 253.627C213.578 253.77 213.262 253.685 213.12 253.438C212.977 253.191 213.062 252.875 213.309 252.732ZM214.822 252.112C214.621 251.994 214.524 251.757 214.585 251.532C214.645 251.308 214.848 251.151 215.081 251.15C215.172 251.15 215.261 251.174 215.339 251.219C215.5 251.311 215.6 251.482 215.601 251.667C215.601 251.853 215.502 252.024 215.341 252.116C215.181 252.209 214.982 252.208 214.823 252.114L214.822 252.112ZM211.5 232.033C215.779 232.038 219.245 235.505 219.25 239.783V239.857C219.082 239.81 218.908 239.786 218.734 239.783V238.75C218.734 238.465 218.503 238.233 218.217 238.233C216.057 238.233 215.106 235.023 215.097 234.991C215.046 234.815 214.907 234.679 214.73 234.633C214.553 234.587 214.364 234.639 214.235 234.768C211.763 237.235 208.339 238.503 204.856 238.238C204.708 238.217 204.558 238.262 204.445 238.36C204.332 238.458 204.267 238.6 204.267 238.75V239.783C204.092 239.786 203.919 239.81 203.75 239.857V239.783C203.755 235.505 207.222 232.038 211.5 232.033ZM203.234 241.85C203.234 241.279 203.696 240.817 204.267 240.817V242.883C203.696 242.883 203.234 242.421 203.234 241.85ZM199.1 248.567C199.103 246.285 200.952 244.436 203.234 244.433C203.519 244.433 203.75 244.202 203.75 243.917V243.843C203.919 243.89 204.092 243.914 204.267 243.917H204.439C204.878 245.898 206.127 247.605 207.884 248.621V250.124C207.527 250.125 207.183 250.255 206.915 250.491L203.079 251.503C202.472 251.664 201.891 251.909 201.353 252.231C199.974 251.529 199.105 250.114 199.1 248.567ZM223.9 260.967H220.756C220.783 260.796 220.798 260.623 220.8 260.45C220.799 259.268 220.22 258.161 219.25 257.485V256.317H218.217V257.769C218.217 257.953 218.315 258.124 218.475 258.216C219.273 258.677 219.766 259.528 219.767 260.45C219.765 260.624 219.746 260.797 219.708 260.967H203.293C203.255 260.797 203.235 260.624 203.234 260.45C203.235 259.528 203.727 258.677 204.525 258.216C204.685 258.124 204.784 257.953 204.784 257.769V256.317H203.75V257.485C202.781 258.161 202.202 259.268 202.2 260.45C202.203 260.623 202.217 260.796 202.245 260.967H199.1V257.996C199.102 255.415 200.841 253.159 203.337 252.502L206.376 251.701C206.379 251.961 206.447 252.216 206.576 252.442C206.848 252.91 207.346 253.203 207.887 253.212C207.901 254.056 208.59 254.732 209.434 254.73C209.696 254.729 209.953 254.662 210.183 254.535C210.461 254.999 210.962 255.283 211.503 255.283C212.044 255.283 212.545 254.999 212.823 254.535C213.053 254.662 213.31 254.729 213.572 254.73C214.414 254.729 215.1 254.054 215.113 253.212C215.654 253.202 216.151 252.91 216.422 252.442C216.551 252.216 216.62 251.961 216.622 251.701L219.664 252.502C222.16 253.159 223.899 255.415 223.9 257.996V260.967Z" fill="#212121"/>
</g>
<rect x="80" y="154" width="51" height="51" fill="#212121" stroke="#212121" stroke-width="2"/>
<rect x="77" y="151" width="51" height="51" fill="white" stroke="#212121" stroke-width="2"/>
<g clip-path="url(#clip2_401_2)">
<path fill-rule="evenodd" clip-rule="evenodd" d="M111.44 191.001H92.5436C92.2812 191.001 92.0515 190.771 92.0515 190.509V182.373C92.0515 179.748 94.0035 177.353 96.8904 176.402C97.0544 176.353 97.2185 176.386 97.3497 176.5C98.5963 177.517 100.253 178.075 101.992 178.075C103.747 178.075 105.387 177.517 106.634 176.5C106.765 176.386 106.945 176.353 107.11 176.402C109.996 177.353 111.932 179.748 111.932 182.373V190.509C111.932 190.771 111.719 191.001 111.44 191.001ZM93.0357 190.017H110.948V182.373C110.948 180.257 109.39 178.288 107.044 177.435C105.65 178.485 103.878 179.059 101.992 179.059C100.122 179.059 98.3503 178.485 96.956 177.435C94.6104 178.288 93.0357 180.257 93.0357 182.373V190.017Z" fill="#212121"/>
<path fill-rule="evenodd" clip-rule="evenodd" d="M101.992 175.926C98.4323 175.926 95.5454 173.022 95.5454 169.463C95.5454 165.903 98.4323 163 101.992 163C105.551 163 108.455 165.903 108.455 169.463C108.455 173.022 105.551 175.926 101.992 175.926ZM101.992 163.984C98.9736 163.984 96.5296 166.445 96.5296 169.463C96.5296 172.481 98.9736 174.941 101.992 174.941C105.01 174.941 107.47 172.481 107.47 169.463C107.47 166.445 105.01 163.984 101.992 163.984Z" fill="#212121"/>
<path fill-rule="evenodd" clip-rule="evenodd" d="M105.633 184.718C105.535 184.718 105.436 184.701 105.354 184.636L103.55 183.438C103.402 183.34 103.32 183.192 103.32 183.028V180.125C103.32 179.862 103.55 179.633 103.813 179.633H107.438C107.716 179.633 107.93 179.862 107.93 180.125V183.028C107.93 183.192 107.848 183.34 107.716 183.438L105.896 184.636C105.814 184.701 105.732 184.718 105.633 184.718ZM104.305 182.766L105.633 183.635L106.946 182.766V180.617H104.305V182.766Z" fill="#212121"/>
<path fill-rule="evenodd" clip-rule="evenodd" d="M96.3983 190.999C96.1195 190.999 95.9062 190.77 95.9062 190.507V185.8C95.9062 185.521 96.1195 185.308 96.3983 185.308C96.6608 185.308 96.8904 185.521 96.8904 185.8V190.507C96.8904 190.77 96.6608 190.999 96.3983 190.999Z" fill="#212121"/>
<path fill-rule="evenodd" clip-rule="evenodd" d="M107.602 190.999C107.323 190.999 107.109 190.77 107.109 190.507V185.8C107.109 185.521 107.323 185.308 107.602 185.308C107.88 185.308 108.094 185.521 108.094 185.8V190.507C108.094 190.77 107.88 190.999 107.602 190.999Z" fill="#212121"/>
</g>
<rect x="284" y="75" width="51" height="51" fill="#212121" stroke="#212121" stroke-width="2"/>
<rect x="281" y="72" width="51" height="51" fill="white" stroke="#212121" stroke-width="2"/>
<g clip-path="url(#clip3_401_2)">
<path fill-rule="evenodd" clip-rule="evenodd" d="M315.44 112.001H296.544C296.281 112.001 296.052 111.771 296.052 111.509V103.373C296.052 100.748 298.003 98.3534 300.89 97.402C301.054 97.3528 301.218 97.3856 301.35 97.5004C302.596 98.5174 304.253 99.0751 305.992 99.0751C307.747 99.0751 309.387 98.5174 310.634 97.5004C310.765 97.3856 310.945 97.3528 311.11 97.402C313.996 98.3534 315.932 100.748 315.932 103.373V111.509C315.932 111.771 315.719 112.001 315.44 112.001ZM297.036 111.017H314.948V103.373C314.948 101.257 313.39 99.2884 311.044 98.4354C309.65 99.4852 307.878 100.059 305.992 100.059C304.122 100.059 302.35 99.4852 300.956 98.4354C298.61 99.2884 297.036 101.257 297.036 103.373V111.017Z" fill="#212121"/>
<path fill-rule="evenodd" clip-rule="evenodd" d="M305.992 96.9256C302.432 96.9256 299.545 94.0223 299.545 90.4628C299.545 86.9033 302.432 84 305.992 84C309.551 84 312.455 86.9033 312.455 90.4628C312.455 94.0223 309.551 96.9256 305.992 96.9256ZM305.992 84.9842C302.974 84.9842 300.53 87.4446 300.53 90.4628C300.53 93.481 302.974 95.9414 305.992 95.9414C309.01 95.9414 311.47 93.481 311.47 90.4628C311.47 87.4446 309.01 84.9842 305.992 84.9842Z" fill="#212121"/>
<path fill-rule="evenodd" clip-rule="evenodd" d="M309.633 105.718C309.535 105.718 309.436 105.701 309.354 105.636L307.55 104.438C307.402 104.34 307.32 104.192 307.32 104.028V101.125C307.32 100.862 307.55 100.633 307.813 100.633H311.438C311.716 100.633 311.93 100.862 311.93 101.125V104.028C311.93 104.192 311.848 104.34 311.716 104.438L309.896 105.636C309.814 105.701 309.732 105.718 309.633 105.718ZM308.305 103.766L309.633 104.635L310.946 103.766V101.617H308.305V103.766Z" fill="#212121"/>
<path fill-rule="evenodd" clip-rule="evenodd" d="M300.398 111.999C300.119 111.999 299.906 111.77 299.906 111.507V106.8C299.906 106.521 300.119 106.308 300.398 106.308C300.661 106.308 300.89 106.521 300.89 106.8V111.507C300.89 111.77 300.661 111.999 300.398 111.999Z" fill="#212121"/>
<path fill-rule="evenodd" clip-rule="evenodd" d="M311.602 111.999C311.323 111.999 311.109 111.77 311.109 111.507V106.8C311.109 106.521 311.323 106.308 311.602 106.308C311.88 106.308 312.094 106.521 312.094 106.8V111.507C312.094 111.77 311.88 111.999 311.602 111.999Z" fill="#212121"/>
</g>
<rect x="284" y="151" width="51" height="51" fill="#212121" stroke="#212121" stroke-width="2"/>
<rect x="281" y="148" width="51" height="51" fill="white" stroke="#212121" stroke-width="2"/>
<g clip-path="url(#clip4_401_2)">
<path fill-rule="evenodd" clip-rule="evenodd" d="M315.44 188.001H296.544C296.281 188.001 296.052 187.771 296.052 187.509V179.373C296.052 176.748 298.003 174.353 300.89 173.402C301.054 173.353 301.218 173.386 301.35 173.5C302.596 174.517 304.253 175.075 305.992 175.075C307.747 175.075 309.387 174.517 310.634 173.5C310.765 173.386 310.945 173.353 311.11 173.402C313.996 174.353 315.932 176.748 315.932 179.373V187.509C315.932 187.771 315.719 188.001 315.44 188.001ZM297.036 187.017H314.948V179.373C314.948 177.257 313.39 175.288 311.044 174.435C309.65 175.485 307.878 176.059 305.992 176.059C304.122 176.059 302.35 175.485 300.956 174.435C298.61 175.288 297.036 177.257 297.036 179.373V187.017Z" fill="#212121"/>
<path fill-rule="evenodd" clip-rule="evenodd" d="M305.992 172.926C302.432 172.926 299.545 170.022 299.545 166.463C299.545 162.903 302.432 160 305.992 160C309.551 160 312.455 162.903 312.455 166.463C312.455 170.022 309.551 172.926 305.992 172.926ZM305.992 160.984C302.974 160.984 300.53 163.445 300.53 166.463C300.53 169.481 302.974 171.941 305.992 171.941C309.01 171.941 311.47 169.481 311.47 166.463C311.47 163.445 309.01 160.984 305.992 160.984Z" fill="#212121"/>
<path fill-rule="evenodd" clip-rule="evenodd" d="M309.633 181.718C309.535 181.718 309.436 181.701 309.354 181.636L307.55 180.438C307.402 180.34 307.32 180.192 307.32 180.028V177.125C307.32 176.862 307.55 176.633 307.813 176.633H311.438C311.716 176.633 311.93 176.862 311.93 177.125V180.028C311.93 180.192 311.848 180.34 311.716 180.438L309.896 181.636C309.814 181.701 309.732 181.718 309.633 181.718ZM308.305 179.766L309.633 180.635L310.946 179.766V177.617H308.305V179.766Z" fill="#212121"/>
<path fill-rule="evenodd" clip-rule="evenodd" d="M300.398 187.999C300.119 187.999 299.906 187.77 299.906 187.507V182.8C299.906 182.521 300.119 182.308 300.398 182.308C300.661 182.308 300.89 182.521 300.89 182.8V187.507C300.89 187.77 300.661 187.999 300.398 187.999Z" fill="#212121"/>
<path fill-rule="evenodd" clip-rule="evenodd" d="M311.602 187.999C311.323 187.999 311.109 187.77 311.109 187.507V182.8C311.109 182.521 311.323 182.308 311.602 182.308C311.88 182.308 312.094 182.521 312.094 182.8V187.507C312.094 187.77 311.88 187.999 311.602 187.999Z" fill="#212121"/>
</g>
<rect x="136" y="7" width="51" height="51" fill="#212121" stroke="#212121" stroke-width="2"/>
<rect x="133" y="4" width="51" height="51" fill="white" stroke="#212121" stroke-width="2"/>
<path d="M171.6 20.6004H165.533V18.7337C165.532 17.4456 164.488 16.402 163.2 16.4004H154.8C153.512 16.402 152.468 17.4456 152.467 18.7337V20.6004H146.4C145.627 20.6004 145 21.2272 145 22.0004V32.3883C145.003 32.9803 145.376 33.5069 145.933 33.7058V40.2004C145.933 40.9735 146.56 41.6004 147.333 41.6004H170.667C171.44 41.6004 172.067 40.9735 172.067 40.2004V33.7062C172.624 33.5071 172.997 32.9803 173 32.3883V22.0004C173 21.2272 172.373 20.6004 171.6 20.6004ZM153.4 18.7337C153.4 17.9606 154.027 17.3337 154.8 17.3337H163.2C163.973 17.3337 164.6 17.9606 164.6 18.7337V20.6004H163.667V18.7337C163.667 18.476 163.458 18.2671 163.2 18.2671H154.8C154.542 18.2671 154.333 18.476 154.333 18.7337V20.6004H153.4V18.7337ZM162.733 20.6004H155.267V19.2004H162.733V20.6004ZM171.133 40.2004C171.133 40.4581 170.924 40.6671 170.667 40.6671H147.333C147.076 40.6671 146.867 40.4581 146.867 40.2004V33.8662L157.133 35.2822V36.4671C157.133 37.2402 157.76 37.8671 158.533 37.8671H159.467C160.24 37.8671 160.867 37.2402 160.867 36.4671V35.2822L171.133 33.8662V40.2004ZM159.933 36.4671C159.933 36.7248 159.724 36.9337 159.467 36.9337H158.533C158.276 36.9337 158.067 36.7248 158.067 36.4671V33.6671C158.067 33.4093 158.276 33.2004 158.533 33.2004H159.467C159.724 33.2004 159.933 33.4093 159.933 33.6671V36.4671ZM172.067 32.3883C172.067 32.6209 171.896 32.8183 171.665 32.8508L171.536 32.8686L160.867 34.3399V33.6671C160.867 32.8939 160.24 32.2671 159.467 32.2671H158.533C157.76 32.2671 157.133 32.8939 157.133 33.6671V34.3399L146.335 32.8508C146.105 32.8185 145.933 32.6212 145.933 32.3883V22.0004C145.933 21.7427 146.142 21.5337 146.4 21.5337H171.6C171.858 21.5337 172.067 21.7427 172.067 22.0004V32.3883Z" fill="#212121"/>
<rect x="4" y="154" width="51" height="51" fill="#212121" stroke="#212121" stroke-width="2"/>
<rect x="1" y="151" width="51" height="51" fill="white" stroke="#212121" stroke-width="2"/>
<path d="M39.6 167.6H33.5333V165.734C33.5317 164.446 32.4881 163.402 31.2 163.4H22.8C21.5119 163.402 20.4683 164.446 20.4667 165.734V167.6H14.4C13.6269 167.6 13 168.227 13 169V179.388C13.003 179.98 13.376 180.507 13.9333 180.706V187.2C13.9333 187.974 14.5602 188.6 15.3333 188.6H38.6667C39.4398 188.6 40.0667 187.974 40.0667 187.2V180.706C40.624 180.507 40.9973 179.98 41 179.388V169C41 168.227 40.3731 167.6 39.6 167.6ZM21.4 165.734C21.4 164.961 22.0269 164.334 22.8 164.334H31.2C31.9731 164.334 32.6 164.961 32.6 165.734V167.6H31.6667V165.734C31.6667 165.476 31.4577 165.267 31.2 165.267H22.8C22.5423 165.267 22.3333 165.476 22.3333 165.734V167.6H21.4V165.734ZM30.7333 167.6H23.2667V166.2H30.7333V167.6ZM39.1333 187.2C39.1333 187.458 38.9244 187.667 38.6667 187.667H15.3333C15.0756 187.667 14.8667 187.458 14.8667 187.2V180.866L25.1333 182.282V183.467C25.1333 184.24 25.7602 184.867 26.5333 184.867H27.4667C28.2398 184.867 28.8667 184.24 28.8667 183.467V182.282L39.1333 180.866V187.2ZM27.9333 183.467C27.9333 183.725 27.7244 183.934 27.4667 183.934H26.5333C26.2756 183.934 26.0667 183.725 26.0667 183.467V180.667C26.0667 180.409 26.2756 180.2 26.5333 180.2H27.4667C27.7244 180.2 27.9333 180.409 27.9333 180.667V183.467ZM40.0667 179.388C40.0669 179.621 39.8958 179.818 39.6654 179.851L39.536 179.869L28.8667 181.34V180.667C28.8667 179.894 28.2398 179.267 27.4667 179.267H26.5333C25.7602 179.267 25.1333 179.894 25.1333 180.667V181.34L14.3351 179.851C14.1047 179.818 13.9331 179.621 13.9333 179.388V169C13.9333 168.743 14.1423 168.534 14.4 168.534H39.6C39.8577 168.534 40.0667 168.743 40.0667 169V179.388Z" fill="#212121"/>
<rect x="214" y="7" width="51" height="51" fill="#212121" stroke="#212121" stroke-width="2"/>
<rect x="211" y="4" width="51" height="51" fill="white" stroke="#212121" stroke-width="2"/>
<path d="M249.6 20.6004H243.533V18.7337C243.532 17.4456 242.488 16.402 241.2 16.4004H232.8C231.512 16.402 230.468 17.4456 230.467 18.7337V20.6004H224.4C223.627 20.6004 223 21.2272 223 22.0004V32.3883C223.003 32.9803 223.376 33.5069 223.933 33.7058V40.2004C223.933 40.9735 224.56 41.6004 225.333 41.6004H248.667C249.44 41.6004 250.067 40.9735 250.067 40.2004V33.7062C250.624 33.5071 250.997 32.9803 251 32.3883V22.0004C251 21.2272 250.373 20.6004 249.6 20.6004ZM231.4 18.7337C231.4 17.9606 232.027 17.3337 232.8 17.3337H241.2C241.973 17.3337 242.6 17.9606 242.6 18.7337V20.6004H241.667V18.7337C241.667 18.476 241.458 18.2671 241.2 18.2671H232.8C232.542 18.2671 232.333 18.476 232.333 18.7337V20.6004H231.4V18.7337ZM240.733 20.6004H233.267V19.2004H240.733V20.6004ZM249.133 40.2004C249.133 40.4581 248.924 40.6671 248.667 40.6671H225.333C225.076 40.6671 224.867 40.4581 224.867 40.2004V33.8662L235.133 35.2822V36.4671C235.133 37.2402 235.76 37.8671 236.533 37.8671H237.467C238.24 37.8671 238.867 37.2402 238.867 36.4671V35.2822L249.133 33.8662V40.2004ZM237.933 36.4671C237.933 36.7248 237.724 36.9337 237.467 36.9337H236.533C236.276 36.9337 236.067 36.7248 236.067 36.4671V33.6671C236.067 33.4093 236.276 33.2004 236.533 33.2004H237.467C237.724 33.2004 237.933 33.4093 237.933 33.6671V36.4671ZM250.067 32.3883C250.067 32.6209 249.896 32.8183 249.665 32.8508L249.536 32.8686L238.867 34.3399V33.6671C238.867 32.8939 238.24 32.2671 237.467 32.2671H236.533C235.76 32.2671 235.133 32.8939 235.133 33.6671V34.3399L224.335 32.8508C224.105 32.8185 223.933 32.6212 223.933 32.3883V22.0004C223.933 21.7427 224.142 21.5337 224.4 21.5337H249.6C249.858 21.5337 250.067 21.7427 250.067 22.0004V32.3883Z" fill="#212121"/>
<rect x="191" y="301" width="51" height="51" fill="#212121" stroke="#212121" stroke-width="2"/>
<rect x="188" y="298" width="51" height="51" fill="white" stroke="#212121" stroke-width="2"/>
<path d="M226.6 314.6H220.533V312.734C220.532 311.446 219.488 310.402 218.2 310.4H209.8C208.512 310.402 207.468 311.446 207.467 312.734V314.6H201.4C200.627 314.6 200 315.227 200 316V326.388C200.003 326.98 200.376 327.507 200.933 327.706V334.2C200.933 334.974 201.56 335.6 202.333 335.6H225.667C226.44 335.6 227.067 334.974 227.067 334.2V327.706C227.624 327.507 227.997 326.98 228 326.388V316C228 315.227 227.373 314.6 226.6 314.6ZM208.4 312.734C208.4 311.961 209.027 311.334 209.8 311.334H218.2C218.973 311.334 219.6 311.961 219.6 312.734V314.6H218.667V312.734C218.667 312.476 218.458 312.267 218.2 312.267H209.8C209.542 312.267 209.333 312.476 209.333 312.734V314.6H208.4V312.734ZM217.733 314.6H210.267V313.2H217.733V314.6ZM226.133 334.2C226.133 334.458 225.924 334.667 225.667 334.667H202.333C202.076 334.667 201.867 334.458 201.867 334.2V327.866L212.133 329.282V330.467C212.133 331.24 212.76 331.867 213.533 331.867H214.467C215.24 331.867 215.867 331.24 215.867 330.467V329.282L226.133 327.866V334.2ZM214.933 330.467C214.933 330.725 214.724 330.934 214.467 330.934H213.533C213.276 330.934 213.067 330.725 213.067 330.467V327.667C213.067 327.409 213.276 327.2 213.533 327.2H214.467C214.724 327.2 214.933 327.409 214.933 327.667V330.467ZM227.067 326.388C227.067 326.621 226.896 326.818 226.665 326.851L226.536 326.869L215.867 328.34V327.667C215.867 326.894 215.24 326.267 214.467 326.267H213.533C212.76 326.267 212.133 326.894 212.133 327.667V328.34L201.335 326.851C201.105 326.818 200.933 326.621 200.933 326.388V316C200.933 315.743 201.142 315.534 201.4 315.534H226.6C226.858 315.534 227.067 315.743 227.067 316V326.388Z" fill="#212121"/>
<g filter="url(#filter0_d_401_2)">
<rect x="175" y="108" width="65" height="65" fill="#212121"/>
</g>
<path d="M219.214 151.095L214.349 146.23C215.823 144.3 216.632 141.959 216.632 139.489C216.632 136.512 215.473 133.713 213.368 131.608C211.263 129.503 208.464 128.344 205.487 128.344C202.51 128.344 199.711 129.503 197.606 131.608C193.26 135.954 193.26 143.025 197.606 147.37C199.711 149.475 202.51 150.635 205.487 150.635C207.957 150.634 210.298 149.826 212.228 148.351L217.093 153.216C217.385 153.509 217.769 153.656 218.153 153.656C218.537 153.656 218.921 153.509 219.214 153.216C219.8 152.63 219.8 151.681 219.214 151.095ZM199.727 145.249C196.551 142.073 196.552 136.905 199.727 133.729C201.265 132.191 203.311 131.344 205.487 131.344C207.663 131.344 209.708 132.191 211.247 133.729C212.785 135.268 213.632 137.313 213.632 139.489C213.632 141.665 212.785 143.71 211.247 145.249C209.708 146.787 207.663 147.635 205.487 147.635C203.311 147.635 201.265 146.787 199.727 145.249Z" fill="white"/>
<defs>
<filter id="filter0_d_401_2" x="150" y="93" width="115" height="115" filterUnits="userSpaceOnUse" color-interpolation-filters="sRGB">
<feFlood flood-opacity="0" result="BackgroundImageFix"/>
<feColorMatrix in="SourceAlpha" type="matrix" values="0 0 0 0 0 0 0 0 0 0 0 0 0 0 0 0 0 0 127 0" result="hardAlpha"/>
<feOffset dy="10"/>
<feGaussianBlur stdDeviation="12.5"/>
<feComposite in2="hardAlpha" operator="out"/>
<feColorMatrix type="matrix" values="0 0 0 0 0 0 0 0 0 0 0 0 0 0 0 0 0 0 0.8 0"/>
<feBlend mode="normal" in2="BackgroundImageFix" result="effect1_dropShadow_401_2"/>
<feBlend mode="normal" in="SourceGraphic" in2="effect1_dropShadow_401_2" result="shape"/>
</filter>
<clipPath id="clip0_401_2">
<rect width="31" height="31" fill="white" transform="translate(87 84)"/>
</clipPath>
<clipPath id="clip1_401_2">
<rect width="31" height="31" fill="white" transform="translate(196 231)"/>
</clipPath>
<clipPath id="clip2_401_2">
<rect width="28" height="28" fill="white" transform="translate(88 163)"/>
</clipPath>
<clipPath id="clip3_401_2">
<rect width="28" height="28" fill="white" transform="translate(292 84)"/>
</clipPath>
<clipPath id="clip4_401_2">
<rect width="28" height="28" fill="white" transform="translate(292 160)"/>
</clipPath>
</defs>
</svg>
