<svg width="160" height="37" viewBox="0 0 160 37" fill="none" xmlns="http://www.w3.org/2000/svg">
<path d="M5.45 36V0.999998H0.1V36H5.45ZM12.65 15.35L18.1 0.999998H12.7L7.15 15.6L13.6 36H19.3L12.65 15.35ZM35.2793 0.999998L32.4793 10.65L34.8793 18.9L40.9793 0.999998H35.2793ZM21.8793 0.999998L28.7293 23.55V36H34.0793V23.9L27.5293 0.999998H21.8793ZM44.1848 8.95V27.95C44.1848 30.9 45.0848 33.1 46.8848 34.55C48.3848 35.75 50.1348 36.15 51.5848 36.3V30.85C50.2348 30.6 49.5348 29.55 49.5348 27.65V9.95C49.5348 8.65 49.6848 7.75 50.0848 7.2C50.4348 6.65 50.9348 6.3 51.5848 6.2V0.799997C49.5848 0.949998 47.7848 1.75 46.4348 3.1C44.9848 4.6 44.1848 6.65 44.1848 8.95ZM55.7848 27.7C55.7848 29.85 54.6348 30.55 53.7348 30.85V36.3C55.6848 36.1 57.4848 35.25 58.8348 33.85C60.3348 32.3 61.1848 30.2 61.1848 28.1V27.1H55.7848V27.7ZM58.8848 3.15C57.5348 1.8 55.7348 0.949998 53.7348 0.799997V6.25C55.0848 6.65 55.7848 8.1 55.7848 9.5V10H61.1848V9.25C61.1848 6.85 60.3348 4.7 58.8848 3.15ZM82.7926 36V0.999998H77.4926V36H82.7926ZM93.5926 15.45C94.1926 14.35 94.4926 13.05 94.4926 11.25V10C94.4926 7.5 93.7926 5.35 92.3926 3.8C90.8426 2 88.5426 0.999998 85.4926 0.999998H84.9426V6.1H85.2426C88.1926 6.1 89.3926 7.45 89.3926 10.6C89.3926 14 88.3426 15.2 85.4426 15.2H84.9426V20H85.3926C88.8426 20 89.3926 21.6 89.3926 25.05C89.3926 28.45 89.0926 30.65 85.3426 30.65H84.9426V36H84.9926C91.2926 36 94.4926 32.75 94.4926 26.4V24.45C94.4926 22.65 94.1926 21.15 93.6426 20.05C93.0926 19 92.3926 18.2 91.2926 17.65C92.1426 17.1 92.9926 16.4 93.5926 15.45ZM106.005 23.7L107.105 17.8L104.805 6.2L98.2047 36H103.555L105.055 28.8H109.255L108.255 23.7H106.005ZM110.455 0.999998H106.055L112.905 36H118.255L110.455 0.999998ZM133.055 9.65H138.205C138.155 9.2 138.155 8.8 138.105 8.4C137.605 3.85 134.905 0.999998 131.205 0.6V5.65C132.505 6.3 132.905 8.25 133.055 9.65ZM132.605 16.65C129.655 13.75 127.355 11.7 127.355 8.6C127.355 7.1 128.005 6 129.055 5.6V0.649999C125.205 1.25 122.155 4.6 122.155 9.05C122.155 13.6 124.855 16.35 128.655 20.2C131.455 22.95 133.355 25.3 133.355 28.15C133.355 29.65 132.605 30.75 131.355 31.2V36.45C135.505 36 138.455 32.65 138.455 28.05C138.455 23.3 136.255 20.2 132.605 16.65ZM126.705 27.3H121.705C121.705 28.7 121.855 30.7 122.455 31.95C123.755 34.8 126.455 36.2 129.255 36.45V31.3C127.705 30.95 126.905 29.6 126.705 27.3ZM159.352 36V30.65H151.202V36H159.352ZM157.552 15.85H149.052V0.999998H143.752V36H149.052V20.95H157.552V15.85ZM159.352 6.1V0.999998H151.202V6.1H159.352Z" fill="#252525"/>
</svg>
