<svg width="34" height="34" viewBox="0 0 34 34" fill="none" xmlns="http://www.w3.org/2000/svg">
<path d="M25.14 23.7872C24.8373 23.5838 24.4266 23.6644 24.223 23.9672C23.8787 24.4798 23.4996 24.9609 23.0915 25.4103C22.006 24.5297 20.7897 23.8197 19.4838 23.2944C19.536 23.0647 19.5864 22.8319 19.6332 22.5935C19.7035 22.2354 19.4702 21.888 19.1121 21.8177C18.7539 21.7474 18.4066 21.9808 18.3363 22.3387C18.302 22.5134 18.2655 22.6848 18.2281 22.8547C16.829 22.435 15.3487 22.2163 13.8314 22.2163C12.3189 22.2163 10.8368 22.4364 9.43401 22.8581C9.08184 21.2617 8.87655 19.4988 8.83699 17.6604H16.2263C16.5913 17.6604 16.8871 17.3646 16.8871 16.9996C16.8871 16.6345 16.5913 16.3387 16.2263 16.3387H8.83699C8.87955 14.3585 9.11427 12.4658 9.51816 10.7746C10.9868 11.2424 12.5493 11.4862 14.153 11.4862C15.5345 11.4862 16.8906 11.3022 18.1842 10.9492C18.2371 11.1792 18.2876 11.4132 18.3346 11.6523C18.4052 12.0102 18.752 12.2432 19.1107 12.1731C19.4687 12.1026 19.7019 11.7552 19.6315 11.397C19.5741 11.1057 19.5124 10.8216 19.4472 10.5432C20.7505 10.0585 21.9716 9.39361 23.0675 8.56292C23.4726 9.00628 23.8493 9.48075 24.1921 9.98605C24.397 10.2882 24.8079 10.3666 25.1099 10.162C25.4119 9.95715 25.4907 9.54621 25.2858 9.24418C22.705 5.4394 18.4229 3.16797 13.8314 3.16797C6.20476 3.16806 0 9.3729 0 16.9996C0 24.6262 6.20476 30.831 13.8314 30.831C18.4476 30.831 22.7423 28.5407 25.32 24.7042C25.5235 24.4013 25.443 23.9908 25.14 23.7872ZM22.1458 26.347C20.6569 27.6721 18.8742 28.6216 16.9448 29.1165C17.8346 28.045 18.5913 26.5027 19.1504 24.5859C20.2292 25.0364 21.2369 25.6271 22.1458 26.347ZM13.8314 23.5379C15.2389 23.5379 16.6103 23.7435 17.9033 24.1375C16.959 27.4135 15.4107 29.5094 13.8314 29.5094C12.6175 29.5094 11.3793 28.249 10.4345 26.0516C10.1803 25.4605 9.95456 24.82 9.75807 24.1403C11.0548 23.7444 12.4283 23.5379 13.8314 23.5379ZM9.22035 26.5737C9.6608 27.5981 10.1649 28.4505 10.7169 29.117C8.76016 28.6138 6.9876 27.6473 5.52236 26.3426C6.42899 25.6266 7.43651 25.0386 8.51363 24.589C8.7199 25.2924 8.9555 25.9575 9.22035 26.5737ZM14.1531 10.1646C12.6677 10.1646 11.2223 9.936 9.86724 9.49828C10.0372 8.95219 10.2259 8.4327 10.4346 7.94749C11.3794 5.75007 12.6175 4.48968 13.8315 4.48968C15.3796 4.48968 16.8987 6.50489 17.8476 9.6715C16.6634 9.99574 15.4204 10.1646 14.1531 10.1646ZM8.6295 9.02884C7.63449 8.59323 6.70239 8.03727 5.85585 7.36923C7.25351 6.20973 8.90651 5.34785 10.717 4.8822C10.1649 5.54865 9.6608 6.4011 9.22044 7.42545C9.00387 7.92916 8.80712 8.46583 8.6295 9.02884ZM16.9452 4.88352C18.86 5.37526 20.6313 6.31475 22.1139 7.62475C21.1952 8.29886 20.1826 8.84743 19.1053 9.25986C18.551 7.41443 17.811 5.92629 16.9452 4.88352ZM4.87397 8.27657C5.90061 9.11246 7.04452 9.79618 8.27125 10.3143C7.8204 12.1463 7.55942 14.198 7.5151 16.3388H1.33907C1.50269 13.211 2.82087 10.3843 4.87397 8.27657ZM1.33907 17.6604H7.5151C7.55634 19.6512 7.78427 21.5658 8.17847 23.2977C6.87429 23.8223 5.65902 24.5313 4.57634 25.4076C2.69364 23.3372 1.49467 20.6346 1.33907 17.6604Z" fill="#212121"/>
<path d="M24.2004 13.2266C22.0028 13.2266 20.2148 15.0145 20.2148 17.2121C20.2148 17.5772 20.5106 17.873 20.8757 17.873C21.2407 17.873 21.5365 17.5772 21.5365 17.2121C21.5365 15.7432 22.7315 14.5482 24.2004 14.5482C24.5655 14.5482 24.8612 14.2524 24.8612 13.8874C24.8612 13.5223 24.5655 13.2266 24.2004 13.2266Z" fill="#212121"/>
<path d="M33.8061 24.2095L30.8735 21.2769C30.6154 21.0189 30.197 21.0189 29.9389 21.2769C29.6809 21.535 29.6809 21.9534 29.9389 22.2114L32.4043 24.6767L31.6639 25.4171L28.0144 21.7675C28.1474 21.6557 28.2771 21.5386 28.4015 21.4142C29.5236 20.292 30.1416 18.7999 30.1416 17.2129C30.1416 15.6259 29.5236 14.1339 28.4015 13.0116C27.2793 11.8894 25.7872 11.2715 24.2002 11.2715C22.6132 11.2715 21.1212 11.8895 19.9989 13.0116C18.8767 14.1338 18.2588 15.6259 18.2588 17.2129C18.2588 18.7999 18.8768 20.2919 19.9989 21.4142C21.1211 22.5364 22.6132 23.1543 24.2002 23.1543C25.1507 23.1543 26.0665 22.931 26.8899 22.5121L31.1967 26.8189C31.3258 26.9479 31.4949 27.0124 31.664 27.0124C31.8331 27.0124 32.0023 26.9479 32.1313 26.8189L33.8063 25.144C34.0642 24.886 34.0642 24.4675 33.8061 24.2095ZM20.9336 20.4797C20.061 19.6071 19.5805 18.447 19.5805 17.2131C19.5805 15.9791 20.061 14.819 20.9336 13.9465C21.8061 13.0739 22.9662 12.5934 24.2002 12.5934C25.4341 12.5934 26.5943 13.0739 27.4668 13.9465C28.3393 14.819 28.8199 15.9791 28.8199 17.2131C28.8199 18.447 28.3393 19.6071 27.4668 20.4797C26.5943 21.3522 25.4341 21.8328 24.2002 21.8328C22.9662 21.8328 21.8061 21.3522 20.9336 20.4797Z" fill="#212121"/>
</svg>
