<svg width="50" height="50" viewBox="0 0 50 50" fill="none" xmlns="http://www.w3.org/2000/svg">
<path d="M45.9467 49.5588H4.05339C3.68561 49.5588 3.38672 49.2599 3.38672 48.8921V21.4632C3.38672 21.2421 3.49561 21.0366 3.67783 20.9121L16.5067 12.1732C16.7112 12.0344 16.9756 12.0199 17.1934 12.1344C17.4123 12.2499 17.5489 12.4766 17.5489 12.7232V20.201L29.3367 12.1721C29.5412 12.0332 29.8056 12.0188 30.0234 12.1332C30.2423 12.2488 30.3789 12.4755 30.3789 12.7221V20.7944H45.9456C46.3134 20.7944 46.6123 21.0932 46.6123 21.461V48.8899C46.6134 49.2599 46.3145 49.5588 45.9467 49.5588ZM4.72005 48.2255H45.2789V22.1299H29.7123C29.3445 22.1299 29.0456 21.831 29.0456 21.4632V13.9855L17.2578 22.0144C17.0534 22.1532 16.7889 22.1677 16.5712 22.0532C16.3523 21.9377 16.2156 21.711 16.2156 21.4644V13.9866L4.72005 21.8155V48.2255Z" fill="#212121"/>
<path d="M32.8276 49.5598H17.172C16.8043 49.5598 16.5054 49.261 16.5054 48.8932V35.0065C16.5054 34.6387 16.8043 34.3398 17.172 34.3398H32.8287C33.1965 34.3398 33.4954 34.6387 33.4954 35.0065V48.8932C33.4943 49.261 33.1965 49.5598 32.8276 49.5598ZM17.8387 48.2265H32.162V35.6732H17.8387V48.2265Z" fill="#212121"/>
<path d="M24.9998 49.5598H17.172C16.8043 49.5598 16.5054 49.261 16.5054 48.8932V35.0065C16.5054 34.6387 16.8043 34.3398 17.172 34.3398H24.9998C25.3676 34.3398 25.6665 34.6387 25.6665 35.0065V48.8932C25.6665 49.261 25.3676 49.5598 24.9998 49.5598ZM17.8387 48.2265H24.3331V35.6732H17.8387V48.2265Z" fill="#212121"/>
<path d="M13.2367 40.919H7.98893C7.62115 40.919 7.32227 40.6201 7.32227 40.2523V35.0046C7.32227 34.6368 7.62115 34.3379 7.98893 34.3379H13.2356C13.6034 34.3379 13.9023 34.6368 13.9023 35.0046V40.2523C13.9034 40.6212 13.6045 40.919 13.2367 40.919ZM8.6556 39.5857H12.5689V35.6712H8.6556V39.5857Z" fill="#212121"/>
<path d="M42.0111 40.919H36.7633C36.3956 40.919 36.0967 40.6201 36.0967 40.2523V35.0046C36.0967 34.6368 36.3956 34.3379 36.7633 34.3379H42.0111C42.3789 34.3379 42.6778 34.6368 42.6778 35.0046V40.2523C42.6778 40.6212 42.3789 40.919 42.0111 40.919ZM37.43 39.5857H41.3445V35.6712H37.43V39.5857Z" fill="#212121"/>
<path d="M42.0111 31.5245H36.7633C36.3956 31.5245 36.0967 31.2256 36.0967 30.8578V25.61C36.0967 25.2422 36.3956 24.9434 36.7633 24.9434H42.0111C42.3789 24.9434 42.6778 25.2422 42.6778 25.61V30.8578C42.6778 31.2256 42.3789 31.5245 42.0111 31.5245ZM37.43 30.1911H41.3445V26.2767H37.43V30.1911Z" fill="#212121"/>
<path d="M32.4187 31.5245H27.172C26.8043 31.5245 26.5054 31.2256 26.5054 30.8578V25.61C26.5054 25.2422 26.8043 24.9434 27.172 24.9434H32.4198C32.7876 24.9434 33.0865 25.2422 33.0865 25.61V30.8578C33.0854 31.2256 32.7876 31.5245 32.4187 31.5245ZM27.8387 30.1911H31.7531V26.2767H27.8387V30.1911Z" fill="#212121"/>
<path d="M22.8279 31.5245H17.5812C17.2134 31.5245 16.9146 31.2256 16.9146 30.8578V25.61C16.9146 25.2422 17.2134 24.9434 17.5812 24.9434H22.829C23.1968 24.9434 23.4957 25.2422 23.4957 25.61V30.8578C23.4946 31.2256 23.1957 31.5245 22.8279 31.5245ZM18.2479 30.1911H22.1612V26.2767H18.2468L18.2479 30.1911Z" fill="#212121"/>
<path d="M13.2367 31.5245H7.98893C7.62115 31.5245 7.32227 31.2256 7.32227 30.8578V25.61C7.32227 25.2422 7.62115 24.9434 7.98893 24.9434H13.2356C13.6034 24.9434 13.9023 25.2422 13.9023 25.61V30.8578C13.9034 31.2256 13.6045 31.5245 13.2367 31.5245ZM8.6556 30.1911H12.5689V26.2767H8.6556V30.1911Z" fill="#212121"/>
<path d="M41.3969 22.1312H34.2625C34.0791 22.1312 33.9025 22.0556 33.7769 21.9212C33.6514 21.7867 33.5858 21.6067 33.5969 21.4234L34.6469 4.45563C34.6691 4.10452 34.9603 3.83008 35.3125 3.83008H40.348C40.7003 3.83008 40.9914 4.10452 41.0136 4.45563L42.0636 21.4234C42.0747 21.6067 42.0103 21.7867 41.8836 21.9212C41.7569 22.0545 41.5814 22.1312 41.3969 22.1312ZM34.9714 20.7979H40.688L39.7214 5.16341H35.9391L34.9714 20.7979Z" fill="#212121"/>
</svg>
