<svg width="175" height="57" viewBox="0 0 175 57" fill="none" xmlns="http://www.w3.org/2000/svg">
<path d="M0.5 1.5H82.5V56.5H0.5V1.5Z" fill="white" stroke="#C9C9C9"/>
<rect x="18.3213" width="15.6071" height="3.39286" fill="#313131"/>
<path d="M17.6037 28.2013L27.7347 17.8723H32.4537L21.9597 29.1583L32.5197 41.2363H27.6687L19.2537 31.8643L17.6037 33.5143V41.2363H13.8087V17.8723H17.6037V28.2013ZM44.23 41.2363H40.402V32.1613L32.284 17.8723H36.673L42.316 28.4983L47.926 17.8723H52.381L44.23 32.1613V41.2363ZM52.7559 34.0423V25.0663C52.7559 22.7123 53.6469 20.8753 55.4289 19.5553C57.2109 18.2133 59.3339 17.5423 61.7979 17.5423C63.5799 17.5423 65.2519 18.0043 66.8139 18.9283C68.3979 19.8523 69.5969 21.1723 70.4109 22.8883L67.0119 24.5713C66.4619 23.5593 65.7029 22.7783 64.7349 22.2283C63.7669 21.6563 62.7549 21.3703 61.6989 21.3703C60.3129 21.3703 59.1029 21.7003 58.0689 22.3603C57.0569 22.9983 56.5509 23.9003 56.5509 25.0663V34.0423C56.5509 35.2083 57.0569 36.1213 58.0689 36.7813C59.1029 37.4193 60.3129 37.7383 61.6989 37.7383C62.7769 37.7383 63.7999 37.4633 64.7679 36.9133C65.7359 36.3633 66.4839 35.5823 67.0119 34.5703L70.4109 36.1543C69.5969 37.8923 68.3869 39.2343 66.7809 40.1803C65.1969 41.1043 63.5029 41.5663 61.6989 41.5663C60.1589 41.5663 58.7289 41.3023 57.4089 40.7743C56.0889 40.2243 54.9779 39.3663 54.0759 38.2003C53.1959 37.0343 52.7559 35.6483 52.7559 34.0423Z" fill="#252525"/>
<path d="M111.414 24.071C111.414 24.929 111.227 25.765 110.853 26.579C110.501 27.393 109.973 28.031 109.269 28.493C111.403 29.417 112.47 31.265 112.47 34.037C112.426 36.479 111.667 38.25 110.193 39.35C108.719 40.45 106.75 41 104.286 41H95.211V17.636H104.319C106.365 17.636 108.059 18.197 109.401 19.319C110.743 20.419 111.414 22.003 111.414 24.071ZM99.039 26.942H104.319C105.331 26.942 106.134 26.7 106.728 26.216C107.344 25.732 107.652 24.973 107.652 23.939C107.652 23.081 107.333 22.432 106.695 21.992C106.079 21.53 105.287 21.299 104.319 21.299H99.039V26.942ZM99.039 37.337H104.319C107.201 37.403 108.642 36.259 108.642 33.905C108.642 31.507 107.201 30.33 104.319 30.374H99.039V37.337ZM125.581 17.636L134.029 41H130.036L127.759 34.928H119.377L117.265 41H113.173L121.588 17.636H125.581ZM123.634 21.497H123.502L122.545 25.259L120.664 31.1H126.439L124.525 25.193L123.634 21.497ZM138.687 24.17C138.687 25.006 139.116 25.633 139.974 26.051C140.832 26.469 142.042 26.821 143.604 27.107C144.55 27.283 145.375 27.47 146.079 27.668C146.805 27.866 147.564 28.163 148.356 28.559C149.17 28.955 149.83 29.417 150.336 29.945C150.842 30.451 151.249 31.122 151.557 31.958C151.865 32.794 151.986 33.74 151.92 34.796C151.832 36.886 150.93 38.503 149.214 39.647C147.52 40.769 145.518 41.33 143.208 41.33C141.36 41.33 139.633 40.846 138.027 39.878C136.443 38.888 135.255 37.491 134.463 35.687L137.961 34.103C138.467 35.203 139.193 36.05 140.139 36.644C141.107 37.216 142.152 37.502 143.274 37.502C144.55 37.502 145.65 37.249 146.574 36.743C147.498 36.215 147.993 35.467 148.059 34.499C148.103 33.993 148.026 33.542 147.828 33.146C147.63 32.75 147.399 32.442 147.135 32.222C146.871 31.98 146.453 31.76 145.881 31.562C145.331 31.364 144.858 31.221 144.462 31.133C144.088 31.045 143.527 30.924 142.779 30.77C141.679 30.55 140.711 30.297 139.875 30.011C139.061 29.725 138.247 29.329 137.433 28.823C136.619 28.317 135.981 27.646 135.519 26.81C135.079 25.974 134.859 25.006 134.859 23.906C134.991 21.882 135.871 20.276 137.499 19.088C139.149 17.9 141.063 17.306 143.241 17.306C147.377 17.306 150.182 18.989 151.656 22.355L148.191 23.906C147.355 22.058 145.705 21.134 143.241 21.134C142.009 21.134 140.942 21.409 140.04 21.959C139.138 22.487 138.687 23.224 138.687 24.17ZM159.013 21.431V27.404H169.672V31.232H159.013V37.172H170.596V41H155.185V17.603H170.596V21.431H159.013Z" fill="#252525"/>
</svg>
