<svg width="44" height="44" viewBox="0 0 44 44" fill="none" xmlns="http://www.w3.org/2000/svg">
<path d="M12.0312 10.4844V6.65775C12.0312 5.13477 13.2773 3.88867 14.8003 3.88867H29.1997C30.7227 3.88867 31.9688 5.13477 31.9688 6.65775V10.4844" stroke="black" stroke-width="2" stroke-miterlimit="22.9256" stroke-linecap="round" stroke-linejoin="round"/>
<path d="M40.9922 22.8594V37.5332C40.9922 38.9509 39.8318 40.1113 38.4141 40.1113H5.58594C4.16823 40.1113 3.00781 38.9512 3.00781 37.5332V22.9453" stroke="black" stroke-width="2" stroke-miterlimit="22.9256" stroke-linecap="round" stroke-linejoin="round"/>
<path d="M18.5625 27.1992C9.47126 26.6794 1.28906 24.0797 1.28906 19.4001V13.2988C1.28906 11.8789 2.44716 10.7207 3.86719 10.7207H40.1328C41.5528 10.7207 42.7109 11.879 42.7109 13.2988V19.4001C42.7109 24.109 34.4254 26.7119 25.2656 27.2088" stroke="black" stroke-width="2" stroke-miterlimit="22.9256" stroke-linecap="round" stroke-linejoin="round"/>
<path fill-rule="evenodd" clip-rule="evenodd" d="M18.8203 24.6426H25.1797V27.6074C25.1797 29.2381 23.8455 30.5723 22.2148 30.5723H21.7852C20.1545 30.5723 18.8203 29.2381 18.8203 27.6074V24.6426Z" stroke="black" stroke-width="2" stroke-miterlimit="22.9256" stroke-linecap="round" stroke-linejoin="round"/>
</svg>
