<svg width="30" height="29" viewBox="0 0 30 29" fill="none" xmlns="http://www.w3.org/2000/svg">
<g clip-path="url(#clip0_109_2299)">
<path d="M14.1645 5.14493H16.0354C16.293 5.14493 16.5032 5.35459 16.5032 5.61267H17.4387C17.4387 4.83911 16.809 4.20944 16.0354 4.20944H15.5677V3.7417H14.6322V4.20944H14.1645C13.3909 4.20944 12.7612 4.83911 12.7612 5.61267V6.08041C12.7612 6.85396 13.3909 7.48363 14.1645 7.48363H16.0354C16.293 7.48363 16.5032 7.6933 16.5032 7.95138V8.41912C16.5032 8.6772 16.293 8.88686 16.0354 8.88686H14.1645C13.9068 8.88686 13.6967 8.6772 13.6967 8.41912H12.7612C12.7612 9.19267 13.3909 9.82234 14.1645 9.82234H14.6322V10.2901H15.5677V9.82234H16.0354C16.809 9.82234 17.4387 9.19267 17.4387 8.41912V7.95138C17.4387 7.17782 16.809 6.54815 16.0354 6.54815H14.1645C13.9068 6.54815 13.6967 6.33849 13.6967 6.08041V5.61267C13.6967 5.35459 13.9068 5.14493 14.1645 5.14493Z" fill="#212121"/>
<path d="M15.1002 12.1604C16.284 12.1604 17.4403 11.7474 18.3562 10.9981L17.7635 10.2743C17.0146 10.8871 16.0684 11.2249 15.1002 11.2249C12.7793 11.2249 10.8906 9.33655 10.8906 7.0152C10.8906 6.04706 11.2284 5.10084 11.8411 4.35241L11.1169 3.75928C10.3675 4.67512 9.95508 5.83146 9.95508 7.0152C9.95508 9.85203 12.2634 12.1604 15.1002 12.1604Z" fill="#212121"/>
<path d="M15.1002 2.80609C17.4211 2.80609 19.3098 4.69442 19.3098 7.01577C19.3098 7.98391 18.9721 8.93013 18.3593 9.67856L19.0835 10.2717C19.8329 9.35585 20.2453 8.19951 20.2453 7.01577C20.2453 4.17894 17.937 1.87061 15.1002 1.87061C13.9164 1.87061 12.7601 2.28353 11.8442 3.03288L12.4369 3.75665C13.1858 3.14388 14.132 2.80609 15.1002 2.80609Z" fill="#212121"/>
<path d="M20.766 11.1561C21.6357 9.96095 22.1161 8.51091 22.1161 7.01564C22.1161 3.14695 18.9686 -0.000488281 15.0999 -0.000488281C11.2312 -0.000488281 8.0838 3.14695 8.0838 7.02912C8.0838 8.51251 8.5641 9.96187 9.43472 11.1575C6.82651 13.0013 5.27734 15.9706 5.27734 19.1769C5.27734 24.593 9.68344 28.9995 15.0999 28.9995C20.5164 28.9995 24.9225 24.593 24.9225 19.1769C24.9225 15.9594 23.377 12.9995 20.766 11.1561V11.1561ZM15.0999 0.934996C18.4527 0.934996 21.1806 3.66288 21.1806 7.02912C21.1806 8.42161 20.6968 9.78327 19.8194 10.8633L15.4994 16.1795C15.303 16.4219 14.8969 16.4219 14.7005 16.1795L10.3805 10.8638C9.50301 9.78327 9.01928 8.42161 9.01928 7.01564C9.01928 3.66288 11.7472 0.934996 15.0999 0.934996V0.934996ZM21.0869 25.7253H16.0354C15.7778 25.7253 15.5677 25.5157 15.5677 25.2576C15.5677 24.9995 15.7778 24.7898 16.0354 24.7898H20.2451C21.0186 24.7898 21.6483 24.1602 21.6483 23.3866C21.6483 22.6131 21.0186 21.9834 20.2451 21.9834H18.3741C18.1165 21.9834 17.9064 21.7737 17.9064 21.5156C17.9064 21.2576 18.1165 21.0479 18.3741 21.0479H20.2451V20.1124H18.3741C17.6006 20.1124 16.9709 20.7421 16.9709 21.5156C16.9709 22.2892 17.6006 22.9189 18.3741 22.9189H20.2451C20.5027 22.9189 20.7128 23.1285 20.7128 23.3866C20.7128 23.6447 20.5027 23.8544 20.2451 23.8544H16.0354C15.2619 23.8544 14.6322 24.484 14.6322 25.2576C14.6322 26.0311 15.2619 26.6608 16.0354 26.6608H19.8737C18.4929 27.5449 16.8576 28.064 15.0999 28.064C11.3566 28.064 8.153 25.7342 6.8457 22.4511H8.55154V21.5156H6.53554C6.33113 20.769 6.21283 19.9875 6.21283 19.1769C6.21283 18.3753 6.32268 17.5908 6.52709 16.8382H10.8902C11.1479 16.8382 11.358 17.0479 11.358 17.306C11.358 17.564 11.1479 17.7737 10.8902 17.7737H10.4225C9.64895 17.7737 9.01928 18.4034 9.01928 19.1769C9.01928 19.9505 9.64895 20.5802 10.4225 20.5802H14.6322C14.8898 20.5802 15.0999 20.7898 15.0999 21.0479C15.0999 21.306 14.8898 21.5156 14.6322 21.5156H11.358V22.4511H14.6322C15.4057 22.4511 16.0354 21.8215 16.0354 21.0479C16.0354 20.2743 15.4057 19.6447 14.6322 19.6447H10.4225C10.1649 19.6447 9.95476 19.435 9.95476 19.1769C9.95476 18.9189 10.1649 18.7092 10.4225 18.7092H10.8902C11.6638 18.7092 12.2935 18.0795 12.2935 17.306C12.2935 16.5324 11.6638 15.9027 10.8902 15.9027H6.83587C7.46783 14.3054 8.56181 12.9092 10.0128 11.8943L13.974 16.7699C14.251 17.1105 14.6612 17.306 15.0999 17.306C15.5387 17.306 15.9488 17.1105 16.2252 16.7699L20.1875 11.8934C21.0383 12.4879 21.7657 13.2119 22.349 14.0313H19.7773C19.0038 14.0313 18.3741 14.661 18.3741 15.4345C18.3741 16.2081 19.0038 16.8378 19.7773 16.8378H21.1806C21.4382 16.8378 21.6483 17.0472 21.6483 17.3055C21.6483 17.5636 21.4382 17.7733 21.1806 17.7733H16.9709V18.7087H21.1806C21.9541 18.7087 22.5838 18.0791 22.5838 17.3055C22.5838 16.532 21.9541 15.9023 21.1806 15.9023H19.7773C19.5197 15.9023 19.3096 15.6926 19.3096 15.4345C19.3096 15.1762 19.5197 14.9668 19.7773 14.9668H22.9305C23.6138 16.238 23.987 17.6764 23.987 19.1769C23.987 19.493 23.9692 19.8045 23.937 20.1124H23.0515V21.0479H23.7849C23.3902 22.8823 22.4239 24.5021 21.0869 25.7253V25.7253Z" fill="#212121"/>
<path d="M9.4873 21.5151H10.4228V22.4506H9.4873V21.5151Z" fill="#212121"/>
<path d="M21.1807 20.1128H22.1161V21.0483H21.1807V20.1128Z" fill="#212121"/>
<path d="M6.50049 11.2391L7.16213 10.5776L7.82355 11.2391L7.16213 11.9005L6.50049 11.2391Z" fill="#212121"/>
<path d="M4.73877 13.7354L5.20651 12.9253L6.01661 13.393L5.54887 14.2031L4.73877 13.7354Z" fill="#212121"/>
<path d="M3.68359 16.6022L3.92592 15.6987L4.82942 15.9408L4.58733 16.8443L3.68359 16.6022Z" fill="#212121"/>
<path d="M3.40674 18.7085H4.34222V19.644H3.40674V18.7085Z" fill="#212121"/>
<path d="M3.68359 21.7514L4.5871 21.5093L4.8292 22.4128L3.92569 22.6549L3.68359 21.7514Z" fill="#212121"/>
<path d="M4.73926 24.6194L5.54958 24.1519L6.0171 24.962L5.207 25.4297L4.73926 24.6194Z" fill="#212121"/>
<path d="M6.50049 27.1141L7.1619 26.4526L7.82332 27.1141L7.1619 27.7755L6.50049 27.1141Z" fill="#212121"/>
<path d="M22.3765 27.1141L23.0379 26.4526L23.6995 27.1141L23.0379 27.7755L22.3765 27.1141Z" fill="#212121"/>
<path d="M24.1821 24.96L24.6499 24.1499L25.46 24.6176L24.9922 25.4277L24.1821 24.96Z" fill="#212121"/>
<path d="M25.3696 22.413L25.6117 21.5093L26.5155 21.7514L26.2734 22.6551L25.3696 22.413Z" fill="#212121"/>
<path d="M25.8584 18.7085H26.7939V19.644H25.8584V18.7085Z" fill="#212121"/>
<path d="M25.3696 15.9408L26.2734 15.6987L26.5155 16.6022L25.6117 16.8443L25.3696 15.9408Z" fill="#212121"/>
<path d="M24.1831 13.3928L24.9932 12.9253L25.4609 13.7354L24.6508 14.2031L24.1831 13.3928Z" fill="#212121"/>
<path d="M22.3765 11.2391L23.0379 10.5776L23.6993 11.2391L23.0379 11.9007L22.3765 11.2391Z" fill="#212121"/>
</g>
<defs>
<clipPath id="clip0_109_2299">
<rect width="29" height="29" fill="white" transform="translate(0.600098 -0.000488281)"/>
</clipPath>
</defs>
</svg>
