<svg width="52" height="52" viewBox="0 0 52 52" fill="none" xmlns="http://www.w3.org/2000/svg">
<g clip-path="url(#clip0_74_419)">
<path d="M44.5871 36.7208C47.6725 34.7204 49.1574 30.9893 48.2903 27.4155C47.4232 23.8422 44.3929 21.2067 40.7337 20.8432V20.4691C41.8894 19.1771 41.8894 17.2229 40.7337 15.9309V14.7333C40.7337 6.59648 34.1376 0 26.0003 0C17.8635 0 11.267 6.59648 11.267 14.7333V15.9309C10.1117 17.2229 10.1117 19.1771 11.267 20.4691V20.8432C7.6082 21.2067 4.57783 23.8422 3.71074 27.4155C2.84365 30.9893 4.32858 34.7204 7.41396 36.7208C4.9041 38.8565 3.46064 41.9881 3.46699 45.2833V51.1333C3.46699 51.6119 3.85504 52 4.33365 52H47.667C48.146 52 48.5337 51.6119 48.5337 51.1333V45.2833C48.54 41.9881 47.0965 38.8565 44.5871 36.7208ZM46.8003 29.4667C46.7944 32.0612 45.3374 34.4348 43.026 35.6137C42.1234 35.0729 41.1488 34.6616 40.1315 34.392L33.692 32.6942C33.243 32.299 32.6654 32.0806 32.067 32.0798V29.5585C35.0136 27.8531 37.1096 24.9903 37.8463 21.6667H38.1337C38.4269 21.6629 38.7181 21.6218 39.0003 21.5435V21.6667C39.0003 22.1453 39.3884 22.5333 39.867 22.5333C43.6946 22.5376 46.7961 25.6395 46.8003 29.4667ZM28.167 34.9527C27.7891 35.1749 27.4738 35.4897 27.2512 35.8681C26.4772 35.4216 25.5238 35.4216 24.7498 35.8681C24.3025 35.0945 23.4769 34.6176 22.5832 34.6172C22.5849 33.869 22.2484 33.1597 21.667 32.6879V30.3862C24.454 31.4713 27.547 31.4713 30.3337 30.3862V32.6879C29.7526 33.1597 29.4162 33.869 29.4179 34.6172C28.9791 34.6201 28.5483 34.7356 28.167 34.9527ZM26.867 38.1333C26.867 38.6119 26.4794 39 26.0003 39C25.5217 39 25.1337 38.6119 25.1337 38.1333C25.1337 37.6547 25.5217 37.2667 26.0003 37.2667C26.4794 37.2667 26.867 37.6547 26.867 38.1333ZM15.6003 15.6V13.942C21.1973 14.1544 26.6592 12.1917 30.8402 8.46481C31.6019 10.2527 33.3306 13.3043 36.4003 13.7981V19.0667C36.4003 24.8104 31.7441 29.4667 26.0003 29.4667C20.257 29.4667 15.6003 24.8104 15.6003 19.0667V15.6ZM39.867 18.2C39.867 19.1572 39.0913 19.9333 38.1337 19.9333V16.4667C39.0913 16.4667 39.867 17.2428 39.867 18.2ZM19.9946 33.8C20.4296 33.8 20.7969 34.1225 20.8536 34.5537C20.9108 34.9849 20.6391 35.3911 20.2189 35.5037C19.7987 35.6163 19.3602 35.4 19.1939 34.9984C19.0276 34.5964 19.1846 34.1335 19.5613 33.916C19.6929 33.8398 19.8422 33.7996 19.9946 33.8ZM21.7834 36.7711C22.0225 36.3564 22.5527 36.2142 22.9674 36.4537C23.3817 36.6928 23.5239 37.2231 23.2844 37.6378C23.0453 38.0521 22.515 38.1943 22.1003 37.9548C21.686 37.7157 21.5438 37.1854 21.7834 36.7711ZM29.0337 36.4537C29.4484 36.2142 29.9786 36.3564 30.2177 36.7711C30.4572 37.1854 30.315 37.7157 29.9007 37.9548C29.486 38.1943 28.9558 38.0521 28.7167 37.6378C28.4772 37.2231 28.6194 36.6933 29.0337 36.4537ZM31.5714 35.4136C31.235 35.216 31.0725 34.8177 31.1741 34.4411C31.2756 34.0645 31.6163 33.8021 32.0065 33.8C32.1588 33.7996 32.3082 33.8398 32.4398 33.916C32.7102 34.07 32.8774 34.3565 32.8782 34.6675C32.8791 34.9785 32.7128 35.2663 32.4432 35.4212C32.1736 35.5761 31.8414 35.5744 31.5731 35.4174L31.5714 35.4136ZM26.0003 1.73333C33.177 1.74137 38.9923 7.5571 39.0003 14.7333V14.8565C38.7181 14.7782 38.4269 14.7371 38.1337 14.7333V13C38.1337 12.5214 37.746 12.1333 37.267 12.1333C33.6446 12.1333 32.0488 6.74883 32.0336 6.69424C31.9485 6.39928 31.7145 6.17119 31.4174 6.0946C31.1203 6.01758 30.8046 6.10391 30.588 6.32057C26.4413 10.4592 20.6971 12.5849 14.8551 12.1418C14.6067 12.1067 14.3549 12.1812 14.1657 12.3458C13.9762 12.5104 13.8674 12.7491 13.867 13V14.7333C13.5741 14.7371 13.283 14.7782 13.0003 14.8565V14.7333C13.0088 7.5571 18.8241 1.74137 26.0003 1.73333ZM12.1337 18.2C12.1337 17.2428 12.9098 16.4667 13.867 16.4667V19.9333C12.9098 19.9333 12.1337 19.1572 12.1337 18.2ZM5.20032 29.4667C5.20498 25.6395 8.30644 22.5376 12.1337 22.5333C12.6127 22.5333 13.0003 22.1453 13.0003 21.6667V21.5435C13.283 21.6218 13.5741 21.6629 13.867 21.6667H14.1547C14.8915 24.9903 16.9875 27.8531 19.9337 29.5585V32.0798C19.3357 32.0806 18.7581 32.299 18.3087 32.6942L11.8738 34.392C10.8565 34.6616 9.88193 35.0729 8.97929 35.6137C6.66621 34.4356 5.20751 32.0624 5.20032 29.4667ZM46.8003 50.2667H41.5258C41.5715 49.9798 41.5965 49.6903 41.6003 49.4C41.5978 47.417 40.627 45.5601 39.0003 44.4264V42.4667H37.267V44.9021C37.267 45.2118 37.432 45.4983 37.7003 45.6532C39.0393 46.4263 39.8649 47.8541 39.867 49.4C39.8644 49.6916 39.8314 49.9819 39.7684 50.2667H12.2327C12.1696 49.9819 12.1366 49.6916 12.1337 49.4C12.1362 47.8541 12.9618 46.4263 14.3003 45.6532C14.569 45.4983 14.7341 45.2118 14.7337 44.9021V42.4667H13.0003V44.4264C11.3741 45.5601 10.4033 47.417 10.4003 49.4C10.4046 49.6903 10.4291 49.9798 10.4752 50.2667H5.20032V45.2833C5.20244 40.9542 8.12067 37.1702 12.3072 36.0682L17.4047 34.7238C17.409 35.1601 17.5245 35.5875 17.7403 35.9667C18.1965 36.7529 19.031 37.2434 19.94 37.259C19.9624 38.6742 21.1181 39.8087 22.5337 39.8045C22.9733 39.8028 23.4054 39.6906 23.7905 39.4782C24.2568 40.2568 25.0973 40.7333 26.005 40.7333C26.9123 40.7333 27.7531 40.2568 28.219 39.4782C28.6041 39.6906 29.0362 39.8028 29.4759 39.8045C30.888 39.804 32.0391 38.6708 32.0611 37.259C32.9684 37.2417 33.8012 36.7517 34.2565 35.9667C34.4719 35.5875 34.5874 35.1601 34.5917 34.7238L39.6939 36.0682C43.8804 37.1702 46.7986 40.9542 46.8003 45.2833V50.2667Z" fill="#212121"/>
</g>
<defs>
<clipPath id="clip0_74_419">
<rect width="52" height="52" fill="white"/>
</clipPath>
</defs>
</svg>
