<svg width="41" height="41" viewBox="0 0 41 41" fill="none" xmlns="http://www.w3.org/2000/svg">
<g clip-path="url(#clip0_74_439)">
<path fill-rule="evenodd" clip-rule="evenodd" d="M34.3228 41H6.65318C6.26888 41 5.93262 40.6637 5.93262 40.2794V28.3661C5.93262 24.5231 8.79085 21.0164 13.0181 19.6233C13.2583 19.5513 13.4985 19.5993 13.6907 19.7674C15.5161 21.2566 17.942 22.0732 20.488 22.0732C23.058 22.0732 25.4599 21.2566 27.2853 19.7674C27.4774 19.5993 27.7416 19.5513 27.9818 19.6233C32.2091 21.0164 35.0433 24.5231 35.0433 28.3661V40.2794C35.0433 40.6637 34.7311 41 34.3228 41ZM7.37374 39.5589H33.6022V28.3661C33.6022 25.2677 31.3204 22.3855 27.8858 21.1365C25.8442 22.6737 23.2501 23.5143 20.488 23.5143C17.7498 23.5143 15.1558 22.6737 13.1142 21.1365C9.67954 22.3855 7.37374 25.2677 7.37374 28.3661V39.5589Z" fill="#212121"/>
<path fill-rule="evenodd" clip-rule="evenodd" d="M20.4882 18.9268C15.2761 18.9268 11.0488 14.6755 11.0488 9.46339C11.0488 4.25132 15.2761 0 20.4882 0C25.7003 0 29.9516 4.25132 29.9516 9.46339C29.9516 14.6755 25.7003 18.9268 20.4882 18.9268ZM20.4882 1.44112C16.0687 1.44112 12.49 5.04394 12.49 9.46339C12.49 13.8828 16.0687 17.4856 20.4882 17.4856C24.9076 17.4856 28.5105 13.8828 28.5105 9.46339C28.5105 5.04394 24.9076 1.44112 20.4882 1.44112Z" fill="#212121"/>
<path fill-rule="evenodd" clip-rule="evenodd" d="M25.8202 31.8013C25.6761 31.8013 25.532 31.7773 25.4119 31.6812L22.7699 29.9278C22.5537 29.7837 22.4336 29.5675 22.4336 29.3273V25.076C22.4336 24.6917 22.7699 24.3555 23.1542 24.3555H28.4623C28.8706 24.3555 29.1829 24.6917 29.1829 25.076V29.3273C29.1829 29.5675 29.0628 29.7837 28.8706 29.9278L26.2045 31.6812C26.0844 31.7773 25.9643 31.8013 25.8202 31.8013ZM23.8747 28.943L25.8202 30.216L27.7417 28.943V25.7966H23.8747V28.943Z" fill="#212121"/>
<path fill-rule="evenodd" clip-rule="evenodd" d="M12.2977 40.9995C11.8894 40.9995 11.5771 40.6633 11.5771 40.279V33.3856C11.5771 32.9773 11.8894 32.665 12.2977 32.665C12.682 32.665 13.0183 32.9773 13.0183 33.3856V40.279C13.0183 40.6633 12.682 40.9995 12.2977 40.9995Z" fill="#212121"/>
<path fill-rule="evenodd" clip-rule="evenodd" d="M28.7025 40.9995C28.2942 40.9995 27.9819 40.6633 27.9819 40.279V33.3856C27.9819 32.9773 28.2942 32.665 28.7025 32.665C29.1108 32.665 29.4231 32.9773 29.4231 33.3856V40.279C29.4231 40.6633 29.1108 40.9995 28.7025 40.9995Z" fill="#212121"/>
</g>
<defs>
<clipPath id="clip0_74_439">
<rect width="41" height="41" fill="white"/>
</clipPath>
</defs>
</svg>
