<svg width="29" height="26" viewBox="0 0 29 26" fill="none" xmlns="http://www.w3.org/2000/svg">
<g clip-path="url(#clip0_109_2248)">
<path d="M3.56104 14.4624V9.482M24.7045 9.482V14.4624" stroke="#212121" stroke-miterlimit="10" stroke-linecap="round" stroke-linejoin="round"/>
<path d="M2.03075 9.24887C1.76428 8.79082 1.92474 8.19812 2.38508 7.93296L13.6007 1.49092C13.7542 1.4021 13.944 1.35905 14.1323 1.35905C14.3221 1.35905 14.5104 1.4021 14.6638 1.49092L25.8795 7.93296C26.3413 8.19812 26.5003 8.79082 26.2338 9.24887C25.9687 9.70833 25.373 9.86654 24.9126 9.60143L14.1323 3.40928L3.35336 9.60143C2.89154 9.86654 2.29722 9.70833 2.03075 9.24887Z" stroke="#212121" stroke-miterlimit="10" stroke-linecap="round" stroke-linejoin="round"/>
<path d="M13.3621 25.5698H2.12841C2.00418 25.5698 1.90234 25.4685 1.90234 25.345V24.0013C1.90234 23.8777 2.00418 23.7764 2.12841 23.7764H26.1375C26.2617 23.7764 26.3635 23.8777 26.3635 24.0013V25.345C26.3635 25.4685 26.2617 25.5698 26.1375 25.5698H15.0656" stroke="#212121" stroke-miterlimit="10" stroke-linecap="round" stroke-linejoin="round"/>
<path d="M15.0042 14.462H26.1375C26.2617 14.462 26.3635 14.5633 26.3635 14.6868V16.0305C26.3635 16.1541 26.2617 16.2554 26.1375 16.2554H2.1284C2.00418 16.2554 1.90234 16.1541 1.90234 16.0305V14.6868C1.90234 14.5633 2.00418 14.462 2.1284 14.462H13.3621" stroke="#212121" stroke-miterlimit="10" stroke-linecap="round" stroke-linejoin="round"/>
<path d="M3.271 16.2571H8.58514V17.6409C8.58514 17.7603 8.48607 17.8589 8.36612 17.8589H3.49002C3.37007 17.8589 3.271 17.7603 3.271 17.6409V16.2571Z" stroke="#212121" stroke-miterlimit="10" stroke-linecap="round" stroke-linejoin="round"/>
<path d="M3.271 23.7769H8.58514V22.3944C8.58514 22.2736 8.48607 22.175 8.36612 22.175H3.49002C3.37007 22.175 3.271 22.2736 3.271 22.3944V23.7769Z" stroke="#212121" stroke-miterlimit="10" stroke-linecap="round" stroke-linejoin="round"/>
<path d="M4.30371 22.1753H7.55303V17.8584H4.30371V22.1753Z" stroke="#212121" stroke-miterlimit="10" stroke-linecap="round" stroke-linejoin="round"/>
<path d="M11.4746 16.2571H16.7901V17.6409C16.7901 17.7603 16.6911 17.8589 16.5697 17.8589H11.6951C11.5737 17.8589 11.4746 17.7603 11.4746 17.6409V16.2571Z" stroke="#212121" stroke-miterlimit="10" stroke-linecap="round" stroke-linejoin="round"/>
<path d="M11.4746 23.7769H16.7901V22.3944C16.7901 22.2736 16.6911 22.175 16.5697 22.175H11.6951C11.5737 22.175 11.4746 22.2736 11.4746 22.3944V23.7769Z" stroke="#212121" stroke-miterlimit="10" stroke-linecap="round" stroke-linejoin="round"/>
<path d="M12.5083 22.1753H15.7562V17.8584H12.5083V22.1753Z" stroke="#212121" stroke-miterlimit="10" stroke-linecap="round" stroke-linejoin="round"/>
<path d="M19.6792 16.2571H24.9947V17.6409C24.9947 17.7603 24.8956 17.8589 24.7743 17.8589H19.8996C19.7783 17.8589 19.6792 17.7603 19.6792 17.6409V16.2571Z" stroke="#212121" stroke-miterlimit="10" stroke-linecap="round" stroke-linejoin="round"/>
<path d="M19.6792 23.7769H24.9947V22.3944C24.9947 22.2736 24.8956 22.175 24.7743 22.175H19.8996C19.7783 22.175 19.6792 22.2736 19.6792 22.3944V23.7769Z" stroke="#212121" stroke-miterlimit="10" stroke-linecap="round" stroke-linejoin="round"/>
<path d="M20.7134 22.1753H23.9613V17.8584H20.7134V22.1753Z" stroke="#212121" stroke-miterlimit="10" stroke-linecap="round" stroke-linejoin="round"/>
<path d="M14.1866 7.93311C14.8367 7.93311 15.3683 7.40426 15.3683 6.75739C15.3683 6.11058 14.8367 5.58168 14.1866 5.58168C13.5351 5.58168 13.0049 6.11058 13.0049 6.75739C13.0049 7.40426 13.5351 7.93311 14.1866 7.93311Z" stroke="#212121" stroke-miterlimit="10" stroke-linecap="round" stroke-linejoin="round"/>
<path d="M9.47132 10.4322C9.47132 10.7946 9.17595 11.0884 8.81169 11.0884C8.631 11.0884 7.979 11.0913 7.979 11.0913V10.4322V9.77589H8.81169C9.17595 9.77589 9.47132 10.0697 9.47132 10.4322Z" stroke="#212121" stroke-miterlimit="10" stroke-linecap="round" stroke-linejoin="round"/>
<path d="M9.72873 11.8573C9.72873 12.2813 9.38326 12.625 8.95713 12.625C8.74578 12.625 7.979 12.6284 7.979 12.6284V11.8573V11.0896H8.95713C9.38326 11.0896 9.72873 11.4333 9.72873 11.8573Z" stroke="#212121" stroke-miterlimit="10" stroke-linecap="round" stroke-linejoin="round"/>
<path d="M11.1177 12.6284L12.1941 9.81655C12.2161 9.76303 12.2922 9.76293 12.3143 9.8164L13.381 12.6284" stroke="#212121" stroke-miterlimit="10" stroke-linecap="round" stroke-linejoin="round"/>
<path d="M11.4531 11.9272H13.0504" stroke="#212121" stroke-miterlimit="10" stroke-linecap="round" stroke-linejoin="round"/>
<path d="M14.8872 12.6284V9.78168L16.8217 12.5687C16.8576 12.6202 16.896 12.595 16.896 12.5323L16.8692 9.77635" stroke="#212121" stroke-miterlimit="10" stroke-linecap="round" stroke-linejoin="round"/>
<path d="M18.7065 9.7407V12.6284" stroke="#212121" stroke-miterlimit="10" stroke-linecap="round" stroke-linejoin="round"/>
<path d="M20.2678 9.77713L18.7993 11.12L20.3708 12.6284" stroke="#212121" stroke-miterlimit="10" stroke-linecap="round" stroke-linejoin="round"/>
</g>
<defs>
<clipPath id="clip0_109_2248">
<rect width="28" height="26" fill="white" transform="translate(0.599609 -0.000488281)"/>
</clipPath>
</defs>
</svg>
