<svg width="37" height="37" viewBox="0 0 37 37" fill="none" xmlns="http://www.w3.org/2000/svg">
<g clip-path="url(#clip0_109_2236)">
<path d="M1.14743 19.5646C1.68214 19.9593 2.598 20.5678 3.80875 21.1231C2.18212 21.6792 1.00877 23.222 1.00877 25.0347V30.25C1.00877 31.0658 1.67244 31.7294 2.48818 31.7294H8.37078C8.66208 31.7294 8.89811 31.4934 8.89811 31.2021C8.89811 30.9108 8.66208 30.6748 8.37078 30.6748H5.1881V25.3589C5.1881 25.0676 4.95207 24.8316 4.66078 24.8316C4.36948 24.8316 4.13345 25.0676 4.13345 25.3589V30.6748H2.48818C2.25397 30.6748 2.06343 30.4842 2.06343 30.25V25.0347C2.06343 23.337 3.44468 21.9558 5.14233 21.9558H6.9316C7.02694 23.3568 8.19311 24.4474 9.60122 24.4474C11.0036 24.4474 12.1744 23.3546 12.27 21.9558H14.0602C15.7579 21.9558 17.1391 23.337 17.1391 25.0347V30.25C17.1391 30.4842 16.9485 30.6748 16.7143 30.6748H15.069V25.3589C15.069 25.0676 14.833 24.8316 14.5417 24.8316C14.2504 24.8316 14.0143 25.0676 14.0143 25.3589V30.6748H10.8317C10.5404 30.6748 10.3043 30.9108 10.3043 31.2021C10.3043 31.4934 10.5404 31.7294 10.8317 31.7294H16.7143C17.5301 31.7294 18.1937 31.0658 18.1937 30.25V25.0347C18.1937 23.222 17.0204 21.6792 15.3937 21.1231C16.6044 20.5679 17.5204 19.9593 18.0551 19.5646C18.5589 19.1927 18.7396 18.5308 18.4945 17.9549C17.7445 16.1923 17.245 14.5644 17.245 12.3497C17.245 8.13503 13.8161 4.70605 9.60129 4.70605C5.38659 4.70605 1.95762 8.13503 1.95762 12.3497C1.95762 14.5644 1.45813 16.1921 0.708056 17.9549C0.462883 18.5308 0.643581 19.1927 1.14743 19.5646V19.5646ZM11.2224 21.7268C11.2224 22.6222 10.5111 23.3807 9.62252 23.3921C8.71727 23.4041 7.98147 22.6717 7.98014 21.7741C7.98014 21.7732 7.98007 21.7723 7.98007 21.7715C7.98007 20.9662 7.98007 20.6076 7.98007 20.214C8.99472 20.5438 10.1323 20.5683 11.2224 20.214V21.7268ZM9.60122 19.4163C7.30073 19.4163 5.39911 17.5439 5.39911 15.2141V12.3483H7.49858C8.6805 12.3483 9.73952 11.8153 10.4443 11.3445V11.7024C10.4443 12.2437 10.9269 12.6559 11.4589 12.5762C12.4255 12.4321 13.2221 11.8811 13.8034 11.3938V15.2142C13.8033 17.5396 11.906 19.4163 9.60122 19.4163V19.4163ZM1.67841 18.3679C2.47904 16.4864 3.0122 14.743 3.0122 12.3498C3.0122 8.71657 5.96799 5.76078 9.60122 5.76078C13.2344 5.76078 16.1903 8.71657 16.1903 12.3498C16.1903 14.743 16.7235 16.4865 17.524 18.3679C17.577 18.4924 17.5378 18.6356 17.4288 18.7161C16.6707 19.2756 15.0888 20.2981 12.9641 20.9011H12.2771V19.7364C13.8208 18.8196 14.8581 17.1361 14.8581 15.2141V10.75C14.8581 10.0893 14.0711 9.73867 13.5804 10.184L13.5676 10.1956C13.0796 10.6388 12.3593 11.2927 11.499 11.4954V10.7751C11.499 10.1371 10.763 9.77995 10.2614 10.1751C9.73087 10.5928 8.66651 11.2936 7.49858 11.2936H5.36093C4.80041 11.2936 4.34445 11.7496 4.34445 12.3101V15.2141C4.34445 17.1361 5.38174 18.8196 6.92541 19.7364V20.9011H6.2384C4.11376 20.2981 2.53184 19.2757 1.77375 18.7161C1.6647 18.6355 1.6254 18.4923 1.67841 18.3679V18.3679Z" fill="#242424"/>
<path d="M36.072 26.5051C36.3633 26.5051 36.5994 26.2691 36.5994 25.9778V25.0346C36.5994 22.7553 34.7451 20.901 32.4658 20.901H30.6827V19.7363C32.0797 18.9067 33.0619 17.4493 33.236 15.7553H33.561C34.5777 15.7553 35.4049 14.9281 35.4049 13.9113C35.4049 13.5492 35.2995 13.2113 35.1185 12.9261V11.8175C35.1185 7.89626 31.9283 4.70605 28.007 4.70605C24.0857 4.70605 20.8954 7.89626 20.8954 11.8175V12.9262C20.7143 13.2115 20.609 13.5492 20.609 13.9114C20.609 14.9282 21.4363 15.7554 22.453 15.7554H22.778C22.9521 17.4494 23.9343 18.9067 25.3312 19.7363V20.901H23.5481C21.2689 20.901 19.4146 22.7553 19.4146 25.0346V30.25C19.4146 31.0657 20.0782 31.7294 20.894 31.7294H35.1201C35.9359 31.7294 36.5995 31.0657 36.5995 30.25V28.4387C36.5995 28.1474 36.3635 27.9114 36.0722 27.9114C35.7809 27.9114 35.5449 28.1474 35.5449 28.4387V30.25C35.5449 30.4842 35.3543 30.6747 35.1201 30.6747H33.4748V25.3589C33.4748 25.0676 33.2388 24.8315 32.9475 24.8315C32.6562 24.8315 32.4202 25.0676 32.4202 25.3589V30.6747H23.5938V25.3589C23.5938 25.0676 23.3578 24.8315 23.0665 24.8315C22.7752 24.8315 22.5392 25.0676 22.5392 25.3589V30.6747H20.8938C20.6596 30.6747 20.4691 30.4842 20.4691 30.25V25.0346C20.4691 23.3369 21.8503 21.9557 23.548 21.9557H25.3372C25.4324 23.3552 26.597 24.4473 28.0069 24.4473C29.4119 24.4473 30.5802 23.3521 30.6756 21.9557H32.4658C34.1635 21.9557 35.5447 23.3369 35.5447 25.0346V25.9778C35.5447 26.2691 35.7807 26.5051 36.072 26.5051V26.5051ZM34.3502 13.9114C34.3502 14.3465 33.9961 14.7007 33.5609 14.7007H33.2637V13.1222H33.5609C33.6799 13.1222 33.8002 13.1511 33.9025 13.201C33.9025 13.201 34.3502 13.3984 34.3502 13.9114V13.9114ZM22.7501 14.7006H22.4529C22.0177 14.7006 21.6635 14.3465 21.6635 13.9113C21.6635 13.476 22.0232 13.122 22.4529 13.122H22.7501V14.7006ZM22.7501 11.9511V12.0674H22.4529C22.2972 12.0674 22.1167 12.0898 21.95 12.1372V11.8175C21.95 8.47772 24.6672 5.76064 28.0069 5.76064C31.3467 5.76064 34.0638 8.47772 34.0638 11.8175V12.1372C33.7699 12.0539 33.561 12.0674 33.2638 12.0674C33.2638 10.8188 32.1952 10.3094 31.3593 10.555C30.2432 10.8835 29.117 11.1087 27.9637 11.1083C26.8343 11.1078 25.8096 10.895 24.6546 10.555C23.7192 10.2801 22.7501 10.9624 22.7501 11.9511ZM29.628 21.7268C29.628 22.6223 28.9166 23.3806 28.0282 23.3921C27.1219 23.404 26.387 22.6705 26.3858 21.7739C26.3858 21.773 26.3857 21.7723 26.3857 21.7715C26.3857 20.9662 26.3857 20.6076 26.3857 20.214C27.452 20.5605 28.5923 20.5507 29.628 20.214V21.7268ZM28.0069 19.4162C25.7009 19.4162 23.8123 17.5426 23.8051 15.2273C23.8051 15.2228 23.805 15.2147 23.8047 15.2081C23.8047 14.3866 23.8047 12.6031 23.8047 11.9511C23.8047 11.6709 24.0898 11.4916 24.3523 11.5659C24.3538 11.5663 24.3553 11.5665 24.3567 11.5669C26.8376 12.2971 28.754 12.4212 31.657 11.5669C31.9171 11.4901 32.209 11.6669 32.209 11.9511V15.2068C32.2089 15.2116 32.2087 15.2173 32.2087 15.2203C32.2087 15.2214 32.2088 15.2223 32.2088 15.2234C32.2037 17.572 30.2781 19.4162 28.0069 19.4162V19.4162Z" fill="#242424"/>
</g>
<defs>
<clipPath id="clip0_109_2236">
<rect width="36" height="36" fill="white" transform="translate(0.599609 0.217773)"/>
</clipPath>
</defs>
</svg>
