<svg width="29" height="28" viewBox="0 0 29 28" fill="none" xmlns="http://www.w3.org/2000/svg">
<g clip-path="url(#clip0_109_2328)">
<path d="M10.1456 4.13623H5.99015C5.69143 4.13623 5.44922 4.37839 5.44922 4.67716V8.12623C5.44922 8.42495 5.69138 8.66716 5.99015 8.66716H10.1456C10.4443 8.66716 10.6865 8.42501 10.6865 8.12623V4.67716C10.6865 4.37845 10.4443 4.13623 10.1456 4.13623V4.13623ZM9.60466 7.58536H6.53102V5.21809H9.60466V7.58536Z" fill="#212121"/>
<path d="M19.0483 8.66716H23.2037C23.5024 8.66716 23.7446 8.42501 23.7446 8.12623V4.67716C23.7446 4.37845 23.5025 4.13623 23.2037 4.13623H19.0483C18.7495 4.13623 18.5073 4.37839 18.5073 4.67716V8.12623C18.5073 8.42501 18.7495 8.66716 19.0483 8.66716V8.66716ZM19.6146 5.21809H22.6882V7.58536H19.6146V5.21809Z" fill="#212121"/>
<path d="M16.6749 4.13623H12.5194C12.2207 4.13623 11.9785 4.37839 11.9785 4.67716V8.12623C11.9785 8.42495 12.2207 8.66716 12.5194 8.66716H16.6749C16.9736 8.66716 17.2158 8.42501 17.2158 8.12623V4.67716C17.2158 4.37845 16.9736 4.13623 16.6749 4.13623V4.13623ZM16.134 7.58536H13.0603V5.21809H16.134V7.58536Z" fill="#212121"/>
<path d="M10.1456 11.728H5.99015C5.69143 11.728 5.44922 11.9702 5.44922 12.269V15.7244C5.45268 16.0207 5.69388 16.259 5.99015 16.259H10.1456C10.4419 16.259 10.683 16.0207 10.6865 15.7244V12.269C10.6865 11.9702 10.4443 11.728 10.1456 11.728ZM9.60466 15.1835H6.53102V12.8098H9.60466V15.1835Z" fill="#212121"/>
<path d="M19.0483 16.259H23.2037C23.5 16.259 23.7411 16.0207 23.7446 15.7244V12.269C23.7446 11.9702 23.5025 11.728 23.2037 11.728H19.0483C18.7495 11.728 18.5073 11.9702 18.5073 12.269V15.7244C18.5108 16.0207 18.752 16.259 19.0483 16.259ZM19.6146 12.8099H22.6882V15.1835H19.6146V12.8099Z" fill="#212121"/>
<path d="M16.6749 11.728H12.5194C12.2207 11.728 11.9785 11.9702 11.9785 12.269V15.7244C11.982 16.0207 12.2232 16.259 12.5194 16.259H16.6749C16.9711 16.259 17.2123 16.0207 17.2158 15.7244V12.269C17.2158 11.9702 16.9736 11.728 16.6749 11.728ZM16.134 15.1835H13.0603V12.8098H16.134V15.1835Z" fill="#212121"/>
<path d="M10.1456 19.3198H5.99015C5.69143 19.3198 5.44922 19.562 5.44922 19.8608V23.3162C5.44922 23.6149 5.69138 23.8571 5.99015 23.8571H10.1456C10.4443 23.8571 10.6865 23.615 10.6865 23.3162V19.8608C10.6865 19.562 10.4443 19.3198 10.1456 19.3198ZM9.60466 22.7753H6.53102V20.4016H9.60466V22.7753Z" fill="#212121"/>
<path d="M19.0483 23.8571H23.2037C23.5024 23.8571 23.7446 23.615 23.7446 23.3162V19.8608C23.7446 19.562 23.5025 19.3198 23.2037 19.3198H19.0483C18.7495 19.3198 18.5073 19.562 18.5073 19.8608V23.3162C18.5073 23.615 18.7495 23.8571 19.0483 23.8571ZM19.6146 20.4017H22.6882V22.7753H19.6146V20.4017Z" fill="#212121"/>
<path d="M16.6749 19.3198H12.5194C12.2207 19.3198 11.9785 19.562 11.9785 19.8608V23.3162C11.9785 23.6149 12.2207 23.8571 12.5194 23.8571H16.6749C16.9736 23.8571 17.2158 23.615 17.2158 23.3162V19.8608C17.2158 19.562 16.9736 19.3198 16.6749 19.3198ZM16.134 22.7753H13.0603V20.4016H16.134V22.7753Z" fill="#212121"/>
<path d="M27.0665 26.9177H26.1183V0.534059C26.1149 0.240298 25.8776 0.00297361 25.5838 -0.000486615H3.61647C3.47299 -0.00084457 3.33542 0.0564879 3.23465 0.158624C3.13371 0.260164 3.07662 0.397261 3.07554 0.540443V5.76497H3.06916V26.9177H2.1337C1.83499 26.9177 1.59277 27.1599 1.59277 27.4586C1.59277 27.7574 1.83493 27.9996 2.1337 27.9996H27.0664C27.3652 27.9996 27.6074 27.7574 27.6074 27.4586C27.6074 27.1599 27.3652 26.9177 27.0665 26.9177V26.9177ZM4.1574 26.9177V5.77136V1.07499H25.0429V26.9177H4.1574Z" fill="#212121"/>
</g>
<defs>
<clipPath id="clip0_109_2328">
<rect width="28" height="28" fill="white" transform="translate(0.600098 -0.000488281)"/>
</clipPath>
</defs>
</svg>
